<svg class="svg-icon" style="width: 1em;height: 1em;vertical-align: middle;fill: currentColor;overflow: hidden;" viewBox="0 0 1024 1024" version="1.1" xmlns="http://www.w3.org/2000/svg"><path d="M855.722667 252.984889v636.302222a46.876444 46.876444 0 0 1-49.123556 44.401778H217.144889a46.876444 46.876444 0 0 1-49.123556-44.401778V119.808a46.848 46.848 0 0 1 49.123556-44.401778h442.083555z" fill="#E9EDED" /><path d="M168.021333 591.217778h687.160889v24.32H168.021333z" fill="#C4C4C4" opacity=".45" /><path d="M151.779556 643.128889v246.158222a62.577778 62.577778 0 0 0 65.422222 59.192889h589.539555a62.577778 62.577778 0 0 0 65.422223-59.192889V643.128889a16.327111 16.327111 0 0 0-17.066667-15.416889H168.846222a16.327111 16.327111 0 0 0-17.066666 15.416889z" fill="#B74961" /><path d="M168.846222 615.537778a16.327111 16.327111 0 0 0-17.066666 15.445333v235.548445a60.785778 60.785778 0 0 0 65.422222 54.983111h589.539555a60.814222 60.814222 0 0 0 65.422223-54.983111v-235.548445a16.327111 16.327111 0 0 0-17.066667-15.445333z" fill="#D75E72" /><path d="M452.835556 289.592889a15.701333 15.701333 0 0 0-16.64 14.563555v209.664a15.644444 15.644444 0 0 0 16.355555 14.819556 17.408 17.408 0 0 0 9.528889-2.844444l163.441778-104.704a13.880889 13.880889 0 0 0 3.811555-20.622223 15.900444 15.900444 0 0 0-3.811555-3.470222l-163.498667-104.675555a17.265778 17.265778 0 0 0-9.187555-2.730667z m16.099555 43.463111l118.840889 76.088889-118.840889 76.003555z" fill="#C4C4C4" opacity=".45" /><path d="M452.664889 279.239111a15.701333 15.701333 0 0 0-16.64 14.563556v209.578666a15.644444 15.644444 0 0 0 16.355555 14.819556 17.635556 17.635556 0 0 0 9.500445-2.844445l163.441778-104.704a13.909333 13.909333 0 0 0 3.84-20.622222 16.042667 16.042667 0 0 0-3.84-3.470222l-163.470223-104.675556a17.265778 17.265778 0 0 0-9.187555-2.645333z m16.099555 43.491556l118.840889 76.060444-118.840889 76.003556z" fill="#D75E72" /><path d="M855.722667 252.984889v14.563555h-147.370667a46.876444 46.876444 0 0 1-49.123556-44.401777V89.998222z" fill="#C4C4C4" opacity=".45" /><path d="M431.559111 830.890667l-45.027555-96.568889-35.982223 76.8h40.305778l10.211556 19.911111h-92.472889l59.733333-127.260445h36.209778l59.733333 127.260445z" fill="#FFFFFF" /><path d="M569.713778 703.431111h32.739555l-51.2 127.459556h-32.910222l-51.2-127.459556h32.938667l34.844444 86.300445z" fill="#FFFFFF" /><path d="M666.709333 830.890667h-32.768V703.431111h32.768z" fill="#FFFFFF" /><path d="M855.722667 252.984889h-147.370667a46.876444 46.876444 0 0 1-49.123556-44.401778V75.406222z" fill="#D75E72" /></svg>