<svg class="svg-icon" style="width: 1em;height: 1em;vertical-align: middle;fill: currentColor;overflow: hidden;" viewBox="0 0 1024 1024" version="1.1" xmlns="http://www.w3.org/2000/svg"><path d="M205.084444 531.626667v-76.515556l-72.675555 80.839111z m612.864 0l0.995556-76.487111 69.802667 78.051555z" fill="#117CCC" /><path d="M817.948444 837.546667a42.24 42.24 0 0 1-10.780444 27.477333 38.513778 38.513778 0 0 1-27.448889 10.780444h-536.376889a42.24 42.24 0 0 1-27.477333-10.780444 38.599111 38.599111 0 0 1-10.780445-27.477333V148.224a36.977778 36.977778 0 0 1 38.257778-38.257778h328.476445a42.097778 42.097778 0 0 1 27.448889 10.780445l206.904888 206.904889a38.485333 38.485333 0 0 1 10.808889 27.477333v482.417778z" fill="#EBECF0" /><path d="M817.948444 837.546667v38.257777a42.154667 42.154667 0 0 1-10.780444 27.448889 38.4 38.4 0 0 1-27.448889 10.780445h-536.376889a37.688889 37.688889 0 0 1-38.257778-38.229334v-38.257777a42.24 42.24 0 0 0 10.780445 27.477333 38.599111 38.599111 0 0 0 27.477333 10.780444h536.376889a36.977778 36.977778 0 0 0 38.229333-38.257777z" fill="#C1C7D0" /><path d="M143.104 530.631111h737.621333a13.624889 13.624889 0 0 1 13.624889 13.624889v177.607111a42.211556 42.211556 0 0 1-10.780444 27.448889 38.599111 38.599111 0 0 1-27.477334 10.780444h-688.355555a42.154667 42.154667 0 0 1-27.448889-10.780444 38.513778 38.513778 0 0 1-10.780444-27.448889v-177.607111a13.624889 13.624889 0 0 1 13.596444-13.624889z" fill="#1890FF" /><path d="M264.021333 308.167111m18.346667 0l98.446222 0q18.346667 0 18.346667 18.346667l0 0q0 18.346667-18.346667 18.346666l-98.446222 0q-18.346667 0-18.346667-18.346666l0 0q0-18.346667 18.346667-18.346667Z" fill="#C1C7D0" /><path d="M264.021333 205.482667m18.346667 0l251.164444 0q18.346667 0 18.346667 18.346666l0 0q0 18.346667-18.346667 18.346667l-251.164444 0q-18.346667 0-18.346667-18.346667l0 0q0-18.346667 18.346667-18.346666Z" fill="#C1C7D0" /><path d="M264.021333 410.88m18.346667 0l251.164444 0q18.346667 0 18.346667 18.346667l0 0q0 18.346667-18.346667 18.346666l-251.164444 0q-18.346667 0-18.346667-18.346666l0 0q0-18.346667 18.346667-18.346667Z" fill="#C1C7D0" /><path d="M808.135111 327.651556l-207.872-206.904889a42.211556 42.211556 0 0 0-27.448889-10.780445v211.797334a37.688889 37.688889 0 0 0 38.229334 38.257777h206.904888v-4.892444a46.904889 46.904889 0 0 0-9.813333-27.477333z" fill="#C1C7D0" /><path d="M328.220444 580.266667a48.583111 48.583111 0 0 1 48.725334 48.810666v42.865778a48.611556 48.611556 0 0 1-48.725334 48.782222H242.375111V580.266667z m2.531556 114.830222a25.6 25.6 0 0 0 9.784889-9.784889 26.396444 26.396444 0 0 0 3.584-13.368889v-42.865778a26.766222 26.766222 0 0 0-3.584-13.596444 26.055111 26.055111 0 0 0-9.784889-9.784889 26.481778 26.481778 0 0 0-13.340444-3.555556H275.000889v96.540445h42.410667a26.225778 26.225778 0 0 0 13.425777-3.555556z" fill="#FFFFFF" /><path d="M438.698667 596.224a31.914667 31.914667 0 0 1 11.633777-11.633778 31.089778 31.089778 0 0 1 15.900445-4.295111h70.741333a31.829333 31.829333 0 0 1 27.733334 15.928889 30.890667 30.890667 0 0 1 4.266666 15.928889v76.544a31.857778 31.857778 0 0 1-32 32.056889h-70.741333a30.350222 30.350222 0 0 1-15.900445-4.380445 32.881778 32.881778 0 0 1-11.633777-11.747555 31.288889 31.288889 0 0 1-4.266667-15.928889v-76.544a31.288889 31.288889 0 0 1 4.266667-15.928889z m92.672 97.820444a15.729778 15.729778 0 0 0 4.807111-11.52v-63.687111a16.014222 16.014222 0 0 0-4.807111-11.747555 15.701333 15.701333 0 0 0-11.377778-4.778667h-36.408889a16.355556 16.355556 0 0 0-16.554667 16.526222v63.687111a15.729778 15.729778 0 0 0 4.807111 11.52 15.900444 15.900444 0 0 0 11.747556 4.807112h36.266667a15.616 15.616 0 0 0 11.52-4.807112z" fill="#FFFFFF" /><path d="M761.059556 720.753778h-92.956445a40.476444 40.476444 0 0 1-20.906667-5.688889 42.012444 42.012444 0 0 1-15.075555-15.217778 40.391111 40.391111 0 0 1-5.688889-20.821333v-57.372445a39.822222 39.822222 0 0 1 5.688889-20.707555 42.154667 42.154667 0 0 1 15.075555-15.104 40.220444 40.220444 0 0 1 20.906667-5.688889h92.956445v21.873778h-81.92a18.972444 18.972444 0 0 0-13.880889 5.688889 18.744889 18.744889 0 0 0-5.688889 13.966222v57.372444a19.512889 19.512889 0 0 0 19.598222 19.598222h81.92z" fill="#FFFFFF" /></svg>