<svg class="svg-icon" style="width: 1em;height: 1em;vertical-align: middle;fill: currentColor;overflow: hidden;" viewBox="0 0 1024 1024" version="1.1" xmlns="http://www.w3.org/2000/svg"><path d="M115.98848 561.03936L199.68 512h623.36l84.9408 49.01888a5.12 5.12 0 0 1-2.56 9.55904H118.5792a5.12 5.12 0 0 1-2.59072-9.53856z" fill="#B37FEB" /><path d="M261.12 117.76h321.28L824.32 359.22944V839.68c0 33.93024-27.50976 61.44-61.44 61.44H261.12c-33.93024 0-61.44-27.50976-61.44-61.44V179.2c0-33.93024 27.50976-61.44 61.44-61.44z" fill="#B37FEB" /><path d="M260.01408 143.36h316.86144l222.9504 225.6896V839.68a35.84 35.84 0 0 1-35.84 35.84H260.01408a35.84 35.84 0 0 1-35.84-35.84V179.2a35.84 35.84 0 0 1 35.84-35.84z" fill="#FFFFFF" /><path d="M820.48 384.78336h-193.62816c-40.97536 0-74.29632-32.78848-75.15648-73.56416l-0.01536-1.6128V117.76h25.6v191.8464c0 26.9056 21.43744 48.80896 48.16384 49.55648l1.408 0.02048h193.62816v25.6z" fill="#B37FEB" /><path d="M102.4 558.08m25.6 0l768 0q25.6 0 25.6 25.6l0 153.6q0 25.6-25.6 25.6l-768 0q-25.6 0-25.6-25.6l0-153.6q0-25.6 25.6-25.6Z" fill="#B37FEB" /><path d="M411.18208 706.56v-64.08192L420.48 706.56h15.66208l8.81664-65.58208V706.56h22.08256v-97.14176h-32.94208l-5.76 45.3632-3.4816-24.71936c-1.0752-7.92064-2.0992-14.80192-3.05664-20.64384h-32.70144V706.56h22.08256z m106.61888 0v-39.1168h6.77888c5.51936 0 9.98912-0.768 13.4144-2.28352 3.41504-1.52064 5.76512-3.70176 7.04512-6.53824 1.28-2.8416 1.92-7.36256 1.92-13.56288v-8.45824c0-6.08256-0.32768-10.5728-0.98816-13.4656a16.06656 16.06656 0 0 0-3.78368-7.41376c-1.85856-2.04288-4.63872-3.59936-8.33536-4.67968-3.70176-1.08032-8.99072-1.62304-15.872-1.62304h-25.44128V706.56h25.26208z m1.85856-55.74144a34.2016 34.2016 0 0 1-1.85856-0.05632v-24.72448c3.2768 0 5.43744 0.50176 6.4768 1.50016 1.04448 1.00352 1.5616 3.16416 1.5616 6.48192v7.98208c0 3.59936-0.45056 5.96992-1.35168 7.10656-0.896 1.14176-2.5088 1.71008-4.82816 1.71008z m77.28128 57.66144c6.7584 0 12.29824-1.11104 16.61952-3.328 4.32128-2.22208 7.35744-5.46304 9.11872-9.72288 1.76128-4.25984 2.64192-10.25024 2.64192-17.9712 0-10.3936-0.90112-17.00864-2.70336-19.82976-1.79712-2.816-4.53632-4.84864-8.2176-6.0928 3.72224-1.9968 6.31808-4.20352 7.79776-6.62528 1.4848-2.42176 2.22208-6.3488 2.22208-11.79136 0-8.0384-2.05824-14.32064-6.17984-18.8416-4.1216-4.51584-11.96032-6.77888-23.52128-6.77888-9.23648 0-15.9744 1.63328-20.21888 4.8896-4.23936 3.26144-6.35904 9.53344-6.35904 18.81088v8.27904h24.23808v-7.97696c0-3.72224 0.3072-6.14912 0.93184-7.29088 0.61952-1.14176 1.77152-1.71008 3.45088-1.71008 1.47968 0 2.57024 0.54272 3.26656 1.61792 0.70144 1.08032 1.0496 3.32288 1.0496 6.72256v5.4016c0 3.15904-0.29696 5.4784-0.896 6.95808-0.60416 1.4848-1.58208 2.44224-2.944 2.88256-1.3568 0.4352-4.9152 0.65536-10.6752 0.65536v14.10048c4.71552 0.08192 7.89504 0.38912 9.53856 0.93184 1.6384 0.5376 2.87744 1.66912 3.71712 3.38944 0.83968 1.72032 1.25952 4.43904 1.25952 8.16128v6.71744c0 6.08256-0.29696 9.84064-0.896 11.27936-0.60416 1.44384-1.8432 2.16064-3.72224 2.16064-1.72032 0-2.83136-0.56832-3.328-1.71008-0.50176-1.13664-0.75264-3.80928-0.75264-8.00768v-15.77984h-24.23808v7.68c0 9.2416 0.6912 15.72864 2.06848 19.47136 1.3824 3.7376 4.25984 6.89664 8.64256 9.47712 4.3776 2.58048 10.40896 3.87072 18.08896 3.87072z" fill="#FFFFFF" /></svg>