<svg class="svg-icon" style="width: 1em;height: 1em;vertical-align: middle;fill: currentColor;overflow: hidden;" viewBox="0 0 1024 1024" version="1.1" xmlns="http://www.w3.org/2000/svg"><path d="M855.722667 252.984889v636.302222a46.876444 46.876444 0 0 1-49.123556 44.401778H217.116444a46.904889 46.904889 0 0 1-49.123555-44.401778V119.808a46.876444 46.876444 0 0 1 49.123555-44.401778h442.112z" fill="#E9EDED" /><path d="M167.992889 591.217778h687.160889v24.32H167.992889z" fill="#C4C4C4" opacity=".45" /><path d="M151.751111 643.128889v246.158222a62.577778 62.577778 0 0 0 65.422222 59.192889h589.539556a62.577778 62.577778 0 0 0 65.422222-59.192889V643.128889a16.327111 16.327111 0 0 0-17.066667-15.416889H168.817778a16.327111 16.327111 0 0 0-17.066667 15.416889z" fill="#5D53BC" /><path d="M168.817778 615.537778a16.327111 16.327111 0 0 0-17.066667 15.445333v235.548445a60.814222 60.814222 0 0 0 65.422222 54.983111h589.539556a60.814222 60.814222 0 0 0 65.422222-54.983111v-235.548445a16.327111 16.327111 0 0 0-17.066667-15.445333z" fill="#8573E2" /><path d="M452.807111 289.592889a15.672889 15.672889 0 0 0-16.611555 14.563555v209.664a15.644444 15.644444 0 0 0 16.355555 14.819556 17.408 17.408 0 0 0 9.528889-2.844444l163.441778-104.704a13.880889 13.880889 0 0 0 3.811555-20.622223 15.900444 15.900444 0 0 0-3.811555-3.470222l-163.470222-104.675555a17.379556 17.379556 0 0 0-9.244445-2.730667z m16.128 43.463111l118.840889 76.088889-118.840889 76.003555z" fill="#C4C4C4" opacity=".45" /><path d="M452.664889 279.239111a15.701333 15.701333 0 0 0-16.64 14.563556v209.578666a15.672889 15.672889 0 0 0 16.355555 14.819556 17.664 17.664 0 0 0 9.528889-2.844445l163.441778-104.704a13.880889 13.880889 0 0 0 3.811556-20.622222 15.900444 15.900444 0 0 0-3.811556-3.470222l-163.498667-104.675556a17.265778 17.265778 0 0 0-9.187555-2.645333z m16.099555 43.491556l118.840889 76.060444-118.840889 76.003556z" fill="#8573E2" /><path d="M855.722667 252.984889v14.563555h-147.512889a46.876444 46.876444 0 0 1-49.123556-44.401777V89.998222z" fill="#C4C4C4" opacity=".45" /><path d="M396.202667 703.431111h32.938666v127.459556h-32.938666v-82.858667l-27.221334 37.347556h-32.540444l-28.643556-38.314667v83.797333H274.858667v-127.431111h32.938666l44.8 59.733333z" fill="#FFFFFF" /><path d="M573.098667 709.176889a43.946667 43.946667 0 0 1 16.696889 14.990222 37.404444 37.404444 0 0 1 6.144 20.707556 37.916444 37.916444 0 0 1-6.144 20.821333 43.690667 43.690667 0 0 1-16.696889 15.075556 48.981333 48.981333 0 0 1-23.011556 5.518222h-60.16v44.600889h-32.739555v-127.260445h92.899555a48.668444 48.668444 0 0 1 23.011556 5.546667z m-17.066667 51.057778a19.911111 19.911111 0 0 0 6.997333-15.36 19.655111 19.655111 0 0 0-6.997333-15.160889 24.149333 24.149333 0 0 0-16.753778-6.286222h-49.351111v43.093333h49.322667a24.149333 24.149333 0 0 0 16.753778-6.286222z" fill="#FFFFFF" /><path d="M755.541333 784.270222v19.911111h-20.650666v26.823111h-32.967111v-27.050666h-85.134223v-19.911111h9.614223l51.968-80.64h56.519111v80.64z m-96.199111 0h42.666667v-66.019555z" fill="#FFFFFF" /><path d="M855.722667 252.984889h-147.512889a46.876444 46.876444 0 0 1-49.123556-44.401778V75.406222z" fill="#8573E2" /></svg>