<svg class="svg-icon" style="width: 1em;height: 1em;vertical-align: middle;fill: currentColor;overflow: hidden;" viewBox="0 0 1024 1024" version="1.1" xmlns="http://www.w3.org/2000/svg"><path d="M205.056 531.598222v-76.487111l-72.675556 80.839111z m612.864 0l0.995556-76.487111 69.831111 78.08z" fill="#B74961" /><path d="M817.92 837.546667a42.097778 42.097778 0 0 1-10.780444 27.448889 38.428444 38.428444 0 0 1-27.448889 10.808888h-536.376889a41.984 41.984 0 0 1-27.448889-10.808888 38.428444 38.428444 0 0 1-10.808889-27.448889V148.195556a36.977778 36.977778 0 0 1 38.257778-38.229334h328.476444a42.24 42.24 0 0 1 27.477334 10.780445l206.904888 206.904889a38.513778 38.513778 0 0 1 10.780445 27.448888v482.446223z" fill="#EBECF0" /><path d="M817.92 837.546667v38.257777a42.211556 42.211556 0 0 1-10.780444 27.448889 38.513778 38.513778 0 0 1-27.448889 10.780445h-536.376889a37.688889 37.688889 0 0 1-38.257778-38.229334v-38.257777a41.984 41.984 0 0 0 10.808889 27.448889 38.428444 38.428444 0 0 0 27.448889 10.808888h536.376889a36.977778 36.977778 0 0 0 38.229333-38.257777z" fill="#C1C7D0" /><path d="M808.135111 327.651556l-207.900444-206.904889a42.154667 42.154667 0 0 0-27.448889-10.780445v211.797334a37.688889 37.688889 0 0 0 38.229333 38.257777h206.904889v-4.920889a46.961778 46.961778 0 0 0-9.784889-27.448888z" fill="#C1C7D0" /><path d="M438.471111 612.408889a20126.065778 20126.065778 0 0 1 157.582222-166.798222 24.746667 24.746667 0 0 1 37.404445 1.820444l131.612444 166.314667a24.860444 24.860444 0 0 1-19.484444 40.305778h-288.768a24.803556 24.803556 0 0 1-18.346667-41.642667z" fill="#C1C7D0" opacity=".5" /><path d="M259.157333 544.512a21101.511111 21101.511111 0 0 1 157.582223-166.798222 24.803556 24.803556 0 0 1 37.404444 1.820444l131.640889 166.343111a24.860444 24.860444 0 0 1-19.512889 40.277334h-288.739556a24.803556 24.803556 0 0 1-18.375111-41.642667z" fill="#C1C7D0" opacity=".7" /><path d="M143.189333 530.631111h737.592889a13.596444 13.596444 0 0 1 13.624889 13.624889v177.578667a42.24 42.24 0 0 1-10.780444 27.477333 38.542222 38.542222 0 0 1-27.448889 10.780444h-688.355556a42.211556 42.211556 0 0 1-27.448889-10.780444 38.656 38.656 0 0 1-10.780444-27.477333V544.142222a13.596444 13.596444 0 0 1 13.596444-13.511111z" fill="#D75E72" /><path d="M337.521778 270.392889m-43.776 0a43.776 43.776 0 1 0 87.552 0 43.776 43.776 0 1 0-87.552 0Z" fill="#C1C7D0" opacity=".5" /><path d="M367.616 586.410667a45.824 45.824 0 0 1 16.611556 16.526222 45.852444 45.852444 0 0 1 0 45.852444 45.511111 45.511111 0 0 1-16.611556 16.64 44.885333 44.885333 0 0 1-22.954667 6.115556H284.728889v49.180444H252.103111v-140.430222h92.558222a44.885333 44.885333 0 0 1 22.954667 6.115556z m-17.066667 56.348444a23.893333 23.893333 0 0 0 0-33.678222 22.755556 22.755556 0 0 0-16.725333-6.940445h-49.123556v47.559112h49.294223a22.755556 22.755556 0 0 0 16.583111-6.940445z" fill="#FFFFFF" /><path d="M548.152889 580.295111h32.625778v140.430222h-32.625778l-69.319111-95.516444v95.516444h-32.597334v-140.430222h32.597334l69.319111 95.544889z" fill="#FFFFFF" /><path d="M685.767111 606.122667a29.952 29.952 0 0 0-10.695111 10.723555 28.444444 28.444444 0 0 0-3.953778 14.677334v37.774222a28.984889 28.984889 0 0 0 3.953778 14.791111 29.610667 29.610667 0 0 0 10.695111 10.837333 28.444444 28.444444 0 0 0 14.705778 3.953778h39.822222v-56.888889h32.625778v78.791111h-83.370667a49.720889 49.720889 0 0 1-25.6-6.940444 51.484444 51.484444 0 0 1-25.6-44.487111v-37.774223a50.033778 50.033778 0 0 1 6.855111-25.6 51.2 51.2 0 0 1 18.631111-18.688 50.005333 50.005333 0 0 1 25.6-6.940444h83.399112v21.845333h-72.362667a28.273778 28.273778 0 0 0-14.705778 3.925334z" fill="#FFFFFF" /></svg>