<svg class="svg-icon" style="width: 1em;height: 1em;vertical-align: middle;fill: currentColor;overflow: hidden;" viewBox="0 0 1024 1024" version="1.1" xmlns="http://www.w3.org/2000/svg"><path d="M205.084444 531.598222v-76.487111l-72.675555 80.839111z m612.864 0l0.967112-76.487111 69.831111 78.08z" fill="#5D53BC" /><path d="M817.948444 837.546667a42.097778 42.097778 0 0 1-10.780444 27.448889 38.485333 38.485333 0 0 1-27.477333 10.808888h-536.376889a42.097778 42.097778 0 0 1-27.448889-10.808888 38.513778 38.513778 0 0 1-10.780445-27.448889V148.195556a36.977778 36.977778 0 0 1 38.229334-38.229334h328.504889a42.097778 42.097778 0 0 1 27.448889 10.780445l206.904888 206.904889a38.4 38.4 0 0 1 10.780445 27.448888v482.446223z" fill="#EBECF0" /><path d="M817.948444 837.546667v38.257777a42.211556 42.211556 0 0 1-10.780444 27.448889 38.599111 38.599111 0 0 1-27.477333 10.780445h-536.376889a37.660444 37.660444 0 0 1-38.229334-38.229334v-38.257777a42.097778 42.097778 0 0 0 10.780445 27.448889 38.485333 38.485333 0 0 0 27.448889 10.808888h536.376889a36.977778 36.977778 0 0 0 38.257777-38.257777z" fill="#C1C7D0" /><path d="M808.135111 327.651556l-207.872-206.904889a42.211556 42.211556 0 0 0-27.448889-10.780445v211.797334a37.688889 37.688889 0 0 0 38.229334 38.257777h206.904888v-4.920889a46.819556 46.819556 0 0 0-9.813333-27.448888z" fill="#C1C7D0" /><path d="M438.556444 612.408889a20097.422222 20097.422222 0 0 1 157.610667-166.798222 24.746667 24.746667 0 0 1 37.404445 1.820444l131.612444 166.314667a24.860444 24.860444 0 0 1-19.512889 40.305778h-288.824889a24.803556 24.803556 0 0 1-18.289778-41.642667z" fill="#C1C7D0" opacity=".5" /><path d="M259.185778 544.512a20588.515556 20588.515556 0 0 1 157.582222-166.798222 24.803556 24.803556 0 0 1 37.404444 1.820444l131.612445 166.343111a24.832 24.832 0 0 1-19.484445 40.277334h-288.768a24.803556 24.803556 0 0 1-18.346666-41.642667z" fill="#C1C7D0" opacity=".7" /><path d="M143.189333 530.631111h737.621334a13.596444 13.596444 0 0 1 13.624889 13.624889v177.578667a42.24 42.24 0 0 1-10.780445 27.477333 38.599111 38.599111 0 0 1-27.477333 10.780444h-688.355556a42.154667 42.154667 0 0 1-27.448889-10.780444 38.513778 38.513778 0 0 1-10.780444-27.477333V544.142222a13.596444 13.596444 0 0 1 13.596444-13.511111z" fill="#8573E2" /><path d="M337.521778 270.392889m-43.776 0a43.776 43.776 0 1 0 87.552 0 43.776 43.776 0 1 0-87.552 0Z" fill="#C1C7D0" opacity=".5" /><path d="M364.885333 644.181333a41.073778 41.073778 0 0 1 14.876445 14.904889 41.272889 41.272889 0 0 1 0 41.244445 41.073778 41.073778 0 0 1-14.876445 14.904889 39.594667 39.594667 0 0 1-20.394666 5.489777h-88.177778v-22.016h77.084444a18.716444 18.716444 0 0 0 13.568-5.518222 19.029333 19.029333 0 0 0 0-26.965333 18.688 18.688 0 0 0-13.568-5.489778h-42.666666a38.997333 38.997333 0 0 1-20.195556-5.432889 40.476444 40.476444 0 0 1-14.563555-14.677333 40.334222 40.334222 0 0 1 0-40.334222 40.931556 40.931556 0 0 1 14.563555-14.592 38.997333 38.997333 0 0 1 20.195556-5.404445h86.243555v21.845333h-75.434666a18.403556 18.403556 0 0 0-18.346667 18.375112 17.379556 17.379556 0 0 0 5.376 12.856888 17.948444 17.948444 0 0 0 12.970667 5.319112h42.808888a39.594667 39.594667 0 0 1 20.536889 5.489777z" fill="#FFFFFF" /><path d="M536.576 580.096h32.625778l-50.972445 140.629333h-32.853333l-50.972444-140.629333h32.853333l34.645333 95.317333z" fill="#FFFFFF" /><path d="M667.249778 606.122667a29.952 29.952 0 0 0-10.695111 10.723555 28.103111 28.103111 0 0 0-3.982223 14.677334v37.774222a28.728889 28.728889 0 0 0 3.982223 14.791111 29.610667 29.610667 0 0 0 10.695111 10.837333 28.444444 28.444444 0 0 0 14.677333 3.953778h39.822222v-56.888889h32.540445v78.791111h-83.370667a49.92 49.92 0 0 1-25.6-6.940444 51.399111 51.399111 0 0 1-25.6-44.487111v-37.774223a50.005333 50.005333 0 0 1 6.826667-25.6 51.2 51.2 0 0 1 18.631111-18.688 50.176 50.176 0 0 1 25.6-6.940444h83.512889v21.845333h-72.362667a28.16 28.16 0 0 0-14.677333 3.925334z" fill="#FFFFFF" /></svg>