<svg class="svg-icon" style="width: 1em;height: 1em;vertical-align: middle;fill: currentColor;overflow: hidden;" viewBox="0 0 1024 1024" version="1.1" xmlns="http://www.w3.org/2000/svg"><path d="M205.056 531.626667v-76.515556l-72.675556 80.839111z m612.864 0l0.995556-76.487111 69.831111 78.051555z" fill="#3D930F" /><path d="M817.92 837.546667a42.24 42.24 0 0 1-10.780444 27.477333 38.513778 38.513778 0 0 1-27.448889 10.780444h-536.376889a42.097778 42.097778 0 0 1-27.448889-10.780444 38.485333 38.485333 0 0 1-10.808889-27.477333V148.224a36.977778 36.977778 0 0 1 38.257778-38.257778h328.476444a42.24 42.24 0 0 1 27.477334 10.780445l206.904888 206.904889a38.599111 38.599111 0 0 1 10.780445 27.477333v482.417778z" fill="#EBECF0" /><path d="M817.92 837.546667v38.257777a42.154667 42.154667 0 0 1-10.780444 27.448889 38.4 38.4 0 0 1-27.448889 10.780445h-536.376889a37.688889 37.688889 0 0 1-38.257778-38.229334v-38.257777a42.126222 42.126222 0 0 0 10.808889 27.477333 38.513778 38.513778 0 0 0 27.448889 10.780444h536.376889a36.977778 36.977778 0 0 0 38.229333-38.257777z" fill="#C1C7D0" /><path d="M143.189333 530.631111h737.592889a13.624889 13.624889 0 0 1 13.624889 13.624889v177.607111a42.211556 42.211556 0 0 1-10.780444 27.448889 38.513778 38.513778 0 0 1-27.448889 10.780444h-688.355556a42.211556 42.211556 0 0 1-27.448889-10.780444 38.513778 38.513778 0 0 1-10.780444-27.448889v-177.607111a13.624889 13.624889 0 0 1 13.596444-13.624889z" fill="#52C41A" /><path d="M263.992889 308.167111m18.346667 0l98.446222 0q18.346667 0 18.346666 18.346667l0 0q0 18.346667-18.346666 18.346666l-98.446222 0q-18.346667 0-18.346667-18.346666l0 0q0-18.346667 18.346667-18.346667Z" fill="#C1C7D0" /><path d="M263.992889 205.482667m18.346667 0l251.164444 0q18.346667 0 18.346667 18.346666l0 0q0 18.346667-18.346667 18.346667l-251.164444 0q-18.346667 0-18.346667-18.346667l0 0q0-18.346667 18.346667-18.346666Z" fill="#C1C7D0" /><path d="M263.992889 410.88m18.346667 0l251.164444 0q18.346667 0 18.346667 18.346667l0 0q0 18.346667-18.346667 18.346666l-251.164444 0q-18.346667 0-18.346667-18.346666l0 0q0-18.346667 18.346667-18.346667Z" fill="#C1C7D0" /><path d="M808.135111 327.651556l-207.900444-206.904889a42.154667 42.154667 0 0 0-27.448889-10.780445v211.797334a37.688889 37.688889 0 0 0 38.229333 38.257777h206.904889v-4.892444a47.047111 47.047111 0 0 0-9.784889-27.477333z" fill="#C1C7D0" /><path d="M404.650667 580.096l-49.152 70.229333 49.152 70.428445H368.355556l-30.976-44.288-31.004445 44.288H269.880889l49.123555-70.428445-49.123555-70.229333h36.494222l31.004445 44.316444 30.976-44.316444z" fill="#FFFFFF" /><path d="M561.635556 720.753778h-57.656889a46.961778 46.961778 0 0 1-24.177778-6.542222 48.355556 48.355556 0 0 1-17.521778-17.550223 47.047111 47.047111 0 0 1-6.4-24.092444V580.266667h32.824889v92.273777a26.083556 26.083556 0 0 0 26.083556 26.140445h46.876444z" fill="#FFFFFF" /><path d="M727.409778 644.209778a41.272889 41.272889 0 0 1 14.904889 14.876444 41.472 41.472 0 0 1 0 41.244445 41.130667 41.130667 0 0 1-14.904889 14.904889 39.253333 39.253333 0 0 1-20.366222 5.518222h-88.177778v-22.044445h77.084444a18.773333 18.773333 0 0 0 13.568-5.518222 19.000889 19.000889 0 0 0 0-26.936889 18.773333 18.773333 0 0 0-13.568-5.518222h-42.666666a38.912 38.912 0 0 1-20.195556-5.404444 40.419556 40.419556 0 0 1-14.592-14.705778 40.448 40.448 0 0 1 0-40.305778 40.618667 40.618667 0 0 1 14.592-14.620444 39.196444 39.196444 0 0 1 20.195556-5.404445h86.215111v21.873778h-75.406223a18.403556 18.403556 0 0 0-18.375111 18.346667 17.408 17.408 0 0 0 5.404445 12.856888 17.777778 17.777778 0 0 0 12.970666 5.319112h42.808889a39.537778 39.537778 0 0 1 20.508445 5.518222z" fill="#FFFFFF" /></svg>