<svg class="svg-icon" style="width: 1em;height: 1em;vertical-align: middle;fill: currentColor;overflow: hidden;" viewBox="0 0 1024 1024" version="1.1" xmlns="http://www.w3.org/2000/svg"><path d="M205.084444 531.626667v-76.515556l-72.704 80.839111z m612.835556 0l0.995556-76.487111 69.831111 78.051555z" fill="#3D930F" /><path d="M817.92 837.546667a42.097778 42.097778 0 0 1-10.780444 27.477333 38.513778 38.513778 0 0 1-27.448889 10.780444h-536.376889a42.154667 42.154667 0 0 1-27.448889-10.780444 38.485333 38.485333 0 0 1-10.780445-27.477333V148.224a36.977778 36.977778 0 0 1 38.229334-38.257778h328.504889a42.211556 42.211556 0 0 1 27.448889 10.780445l206.904888 206.904889a38.599111 38.599111 0 0 1 10.780445 27.477333v482.417778z" fill="#EBECF0" /><path d="M817.92 837.546667v38.257777a42.012444 42.012444 0 0 1-10.780444 27.448889 38.4 38.4 0 0 1-27.448889 10.780445h-536.376889a37.660444 37.660444 0 0 1-38.229334-38.229334v-38.257777a42.097778 42.097778 0 0 0 10.780445 27.477333 38.513778 38.513778 0 0 0 27.448889 10.780444h536.376889a36.977778 36.977778 0 0 0 38.229333-38.257777z" fill="#C1C7D0" /><path d="M143.189333 530.631111H880.696889a13.624889 13.624889 0 0 1 13.596444 13.624889v177.607111a42.211556 42.211556 0 0 1-10.780444 27.448889 38.513778 38.513778 0 0 1-27.448889 10.780444h-688.355556a42.24 42.24 0 0 1-27.477333-10.780444 38.513778 38.513778 0 0 1-10.780444-27.448889v-177.607111a13.624889 13.624889 0 0 1 13.738666-13.624889z" fill="#52C41A" /><path d="M263.992889 308.167111m18.346667 0l98.446222 0q18.346667 0 18.346666 18.346667l0 0q0 18.346667-18.346666 18.346666l-98.446222 0q-18.346667 0-18.346667-18.346666l0 0q0-18.346667 18.346667-18.346667Z" fill="#C1C7D0" /><path d="M263.992889 205.482667m18.346667 0l251.164444 0q18.346667 0 18.346667 18.346666l0 0q0 18.346667-18.346667 18.346667l-251.164444 0q-18.346667 0-18.346667-18.346667l0 0q0-18.346667 18.346667-18.346666Z" fill="#C1C7D0" /><path d="M263.992889 410.88m18.346667 0l251.164444 0q18.346667 0 18.346667 18.346667l0 0q0 18.346667-18.346667 18.346666l-251.164444 0q-18.346667 0-18.346667-18.346666l0 0q0-18.346667 18.346667-18.346667Z" fill="#C1C7D0" /><path d="M808.135111 327.651556l-207.900444-206.904889a42.097778 42.097778 0 0 0-27.448889-10.780445v211.797334a37.688889 37.688889 0 0 0 38.229333 38.257777h206.904889v-4.892444a46.876444 46.876444 0 0 0-9.784889-27.477333z" fill="#C1C7D0" /><path d="M347.164444 588.572444l-38.826666 55.495112 38.826666 55.637333h-28.672l-24.490666-35.015111-24.462222 35.015111H240.696889l38.798222-55.637333-38.798222-55.495112h28.842667l24.462222 35.015112 24.490666-35.015112z" fill="#FFFFFF" /><path d="M471.096889 699.733333h-45.511111a36.977778 36.977778 0 0 1-19.086222-5.176889 38.058667 38.058667 0 0 1-13.852445-13.852444 37.347556 37.347556 0 0 1-5.063111-19.029333V588.8h25.912889v72.903111a20.622222 20.622222 0 0 0 20.622222 20.622222h36.977778z" fill="#FFFFFF" /><path d="M602.112 639.232a32.455111 32.455111 0 0 1 11.776 11.776 32.824889 32.824889 0 0 1 0 32.568889 32.455111 32.455111 0 0 1-11.776 11.776 31.288889 31.288889 0 0 1-16.099556 4.352h-69.575111v-17.436445h60.871111a14.734222 14.734222 0 0 0 10.723556-4.323555 15.075556 15.075556 0 0 0 0-21.304889 14.762667 14.762667 0 0 0-10.723556-4.352h-33.678222a30.862222 30.862222 0 0 1-15.928889-4.266667 31.459556 31.459556 0 0 1-11.377777-11.605333 31.687111 31.687111 0 0 1 0-31.857778 31.658667 31.658667 0 0 1 11.377777-11.377778 30.890667 30.890667 0 0 1 15.928889-4.295111h68.266667v17.265778h-59.733333a14.620444 14.620444 0 0 0-14.506667 14.506667 13.596444 13.596444 0 0 0 4.295111 10.154666 13.937778 13.937778 0 0 0 10.211556 4.181334h33.820444a31.288889 31.288889 0 0 1 16.128 4.238222z" fill="#FFFFFF" /><path d="M764.074667 588.572444l-38.826667 55.495112 38.826667 55.665777h-28.728889l-24.519111-35.015111-24.462223 35.015111h-28.842666l38.826666-55.637333-38.826666-55.495111h28.842666l24.462223 35.015111 24.519111-35.015111z" fill="#FFFFFF" /></svg>