<svg class="svg-icon" style="width: 1em;height: 1em;vertical-align: middle;fill: currentColor;overflow: hidden;" viewBox="0 0 1024 1024" version="1.1" xmlns="http://www.w3.org/2000/svg"><path d="M205.056 531.626667v-76.487111l-72.675556 80.839111z m612.864 0l0.995556-76.487111 69.831111 78.051555z" fill="#17426A" /><path d="M817.92 837.546667a42.24 42.24 0 0 1-10.780444 27.477333 38.513778 38.513778 0 0 1-27.448889 10.780444H243.313778a42.097778 42.097778 0 0 1-27.448889-10.780444 38.485333 38.485333 0 0 1-10.808889-27.477333V148.224a36.977778 36.977778 0 0 1 38.257778-38.257778h328.476444a42.24 42.24 0 0 1 27.477334 10.780445l206.904888 206.904889a38.599111 38.599111 0 0 1 10.780445 27.477333v482.417778z" fill="#EBECF0" /><path d="M204.117333 148.195556a42.24 42.24 0 0 1 10.780445-27.477334 38.513778 38.513778 0 0 1 27.448889-10.780444h536.376889a42.097778 42.097778 0 0 1 27.448888 10.780444 38.485333 38.485333 0 0 1 10.808889 27.477334v689.322666a36.977778 36.977778 0 0 1-38.257777 38.257778H450.247111a42.24 42.24 0 0 1-27.477333-10.780444l-206.904889-206.904889a38.599111 38.599111 0 0 1-10.780445-27.477334V148.195556z" fill="#EBECF0" /><path d="M817.92 837.546667v38.257777a42.154667 42.154667 0 0 1-10.780444 27.448889 38.4 38.4 0 0 1-27.448889 10.780445H243.313778a37.688889 37.688889 0 0 1-38.257778-38.229334v-38.257777a42.126222 42.126222 0 0 0 10.808889 27.477333 38.513778 38.513778 0 0 0 27.448889 10.780444h536.376889a36.977778 36.977778 0 0 0 38.229333-38.257777z" fill="#C1C7D0" /><path d="M143.189333 530.631111h737.592889a13.624889 13.624889 0 0 1 13.624889 13.624889v177.692444a42.211556 42.211556 0 0 1-10.780444 27.448889 38.513778 38.513778 0 0 1-27.448889 10.780445H167.822222a42.211556 42.211556 0 0 1-27.448889-10.780445 38.513778 38.513778 0 0 1-10.780444-27.448889v-177.607111a13.624889 13.624889 0 0 1 13.596444-13.710222z" fill="#486B8B" /><path d="M283.278222 117.333333h85.333334v56.888889h-85.333334z" fill="#C1C7D0" /><path d="M368.611556 174.222222h85.333333v56.888889h-85.333333z" fill="#C1C7D0" /><path d="M283.278222 231.111111h85.333334v56.888889h-85.333334z" fill="#C1C7D0" /><path d="M368.611556 288h85.333333v56.888889h-85.333333z" fill="#C1C7D0" /><path d="M283.278222 344.888889h85.333334v56.888889h-85.333334z" fill="#C1C7D0" /><path d="M368.611556 401.777778h85.333333v56.888889h-85.333333z" fill="#C1C7D0" /><path d="M361.585778 577.479111v21.504l-76.060445 94.179556h76.060445v21.504H229.973333v-21.504h17.322667l76.060444-94.179556H229.973333v-21.504z m164.266666 137.187556h-31.857777v-137.187556h31.857777z m227.384889-136.988445a43.719111 43.719111 0 0 1 22.414223 5.973334 44.487111 44.487111 0 0 1 16.213333 16.128 43.178667 43.178667 0 0 1 5.973333 22.300444 43.719111 43.719111 0 0 1-5.973333 22.385778 44.259556 44.259556 0 0 1-16.213333 16.241778 43.719111 43.719111 0 0 1-22.414223 5.973333h-58.538666v47.985778h-31.857778v-136.988445z m-10.552889 67.697778a22.243556 22.243556 0 0 0 16.327112-6.769778 22.471111 22.471111 0 0 0 6.769777-16.526222 22.243556 22.243556 0 0 0-6.769777-16.327111 22.243556 22.243556 0 0 0-16.327112-6.769778h-47.985777v46.392889z" fill="#F5F7FA" /></svg>