<svg width="425" height="385" viewBox="0 0 425 385" fill="none" xmlns="http://www.w3.org/2000/svg">
<g filter="url(#filter0_d_102_5)">
<path d="M168.762 24.291C167.095 24.291 165.712 24.0577 164.612 23.591C163.512 23.1077 162.678 22.4827 162.112 21.716C161.545 20.9493 161.245 20.1327 161.212 19.266C161.212 19.1327 161.262 19.016 161.362 18.916C161.478 18.7993 161.612 18.741 161.762 18.741H164.912C165.145 18.741 165.32 18.7827 165.437 18.866C165.57 18.9493 165.687 19.0577 165.787 19.191C165.92 19.441 166.103 19.6827 166.337 19.916C166.587 20.1493 166.903 20.341 167.287 20.491C167.687 20.6243 168.178 20.691 168.762 20.691C169.728 20.691 170.453 20.541 170.937 20.241C171.437 19.941 171.687 19.5327 171.687 19.016C171.687 18.6493 171.553 18.3493 171.287 18.116C171.02 17.866 170.587 17.6493 169.987 17.466C169.403 17.266 168.62 17.066 167.637 16.866C166.37 16.5993 165.287 16.2577 164.387 15.841C163.503 15.4077 162.828 14.8493 162.362 14.166C161.895 13.466 161.662 12.5993 161.662 11.566C161.662 10.5493 161.945 9.64102 162.512 8.84101C163.095 8.04101 163.903 7.41602 164.937 6.96601C165.97 6.51601 167.195 6.29101 168.612 6.29101C169.762 6.29101 170.77 6.44101 171.637 6.74101C172.52 7.04101 173.262 7.44101 173.862 7.94101C174.462 8.44101 174.912 8.97435 175.212 9.54101C175.528 10.091 175.695 10.6327 175.712 11.166C175.712 11.2993 175.662 11.4243 175.562 11.541C175.462 11.641 175.337 11.691 175.187 11.691H171.887C171.703 11.691 171.545 11.6577 171.412 11.591C171.278 11.5243 171.162 11.416 171.062 11.266C170.962 10.8993 170.695 10.5827 170.262 10.316C169.845 10.0327 169.295 9.89101 168.612 9.89101C167.878 9.89101 167.303 10.0243 166.887 10.291C166.487 10.541 166.287 10.9327 166.287 11.466C166.287 11.7993 166.395 12.091 166.612 12.341C166.845 12.591 167.22 12.8077 167.737 12.991C168.27 13.1743 168.995 13.366 169.912 13.566C171.428 13.8493 172.653 14.2077 173.587 14.641C174.52 15.0577 175.203 15.6077 175.637 16.291C176.07 16.9577 176.287 17.7993 176.287 18.816C176.287 19.9493 175.962 20.9327 175.312 21.766C174.678 22.5827 173.795 23.2077 172.662 23.641C171.528 24.0743 170.228 24.291 168.762 24.291ZM183.094 24.041C182.91 24.041 182.76 23.9827 182.644 23.866C182.527 23.7493 182.469 23.5993 182.469 23.416V10.466H178.019C177.835 10.466 177.685 10.4077 177.569 10.291C177.452 10.1577 177.394 10.0077 177.394 9.84102V7.16602C177.394 6.98268 177.452 6.83268 177.569 6.71602C177.685 6.59935 177.835 6.54101 178.019 6.54101H191.469C191.652 6.54101 191.802 6.59935 191.919 6.71602C192.035 6.83268 192.094 6.98268 192.094 7.16602V9.84102C192.094 10.0077 192.035 10.1577 191.919 10.291C191.802 10.4077 191.652 10.466 191.469 10.466H187.019V23.416C187.019 23.5993 186.96 23.7493 186.844 23.866C186.727 23.9827 186.577 24.041 186.394 24.041H183.094ZM194.991 24.041C194.807 24.041 194.657 23.9827 194.541 23.866C194.424 23.7493 194.366 23.5993 194.366 23.416V7.16602C194.366 6.98268 194.424 6.83268 194.541 6.71602C194.657 6.59935 194.807 6.54101 194.991 6.54101H201.791C203.941 6.54101 205.632 7.04101 206.866 8.04101C208.116 9.02435 208.741 10.4243 208.741 12.241C208.741 13.4243 208.449 14.4243 207.866 15.241C207.299 16.0577 206.549 16.6743 205.616 17.091L209.066 23.241C209.116 23.341 209.141 23.4327 209.141 23.516C209.141 23.6493 209.082 23.7743 208.966 23.891C208.866 23.991 208.741 24.041 208.591 24.041H205.291C204.974 24.041 204.741 23.966 204.591 23.816C204.441 23.6493 204.332 23.4993 204.266 23.366L201.416 17.866H198.841V23.416C198.841 23.5993 198.782 23.7493 198.666 23.866C198.549 23.9827 198.399 24.041 198.216 24.041H194.991ZM198.841 14.341H201.741C202.524 14.341 203.107 14.1493 203.491 13.766C203.891 13.3827 204.091 12.8577 204.091 12.191C204.091 11.541 203.899 11.016 203.516 10.616C203.149 10.216 202.557 10.016 201.741 10.016H198.841V14.341ZM218.728 24.291C217.194 24.291 215.861 24.041 214.728 23.541C213.594 23.041 212.711 22.291 212.078 21.291C211.444 20.2743 211.094 19.0077 211.028 17.491C211.011 16.7743 211.003 16.0577 211.003 15.341C211.003 14.6243 211.011 13.8993 211.028 13.166C211.094 11.666 211.444 10.4077 212.078 9.39101C212.728 8.35768 213.619 7.58268 214.753 7.06602C215.886 6.54935 217.211 6.29101 218.728 6.29101C220.228 6.29101 221.544 6.54935 222.678 7.06602C223.828 7.58268 224.728 8.35768 225.378 9.39101C226.028 10.4077 226.378 11.666 226.428 13.166C226.461 13.8993 226.478 14.6243 226.478 15.341C226.478 16.0577 226.461 16.7743 226.428 17.491C226.361 19.0077 226.011 20.2743 225.378 21.291C224.744 22.291 223.861 23.041 222.728 23.541C221.594 24.041 220.261 24.291 218.728 24.291ZM218.728 20.691C219.611 20.691 220.328 20.4243 220.878 19.891C221.444 19.3577 221.744 18.5077 221.778 17.341C221.811 16.6077 221.828 15.916 221.828 15.266C221.828 14.616 221.811 13.941 221.778 13.241C221.744 12.4577 221.594 11.8243 221.328 11.341C221.078 10.841 220.728 10.4743 220.278 10.241C219.828 10.0077 219.311 9.89101 218.728 9.89101C218.161 9.89101 217.653 10.0077 217.203 10.241C216.753 10.4743 216.394 10.841 216.128 11.341C215.861 11.8243 215.711 12.4577 215.678 13.241C215.661 13.941 215.653 14.616 215.653 15.266C215.653 15.916 215.661 16.6077 215.678 17.341C215.728 18.5077 216.028 19.3577 216.578 19.891C217.128 20.4243 217.844 20.691 218.728 20.691ZM230 24.041C229.817 24.041 229.667 23.9827 229.55 23.866C229.434 23.7493 229.375 23.5993 229.375 23.416V7.16602C229.375 6.98268 229.434 6.83268 229.55 6.71602C229.667 6.59935 229.817 6.54101 230 6.54101H232.65C232.934 6.54101 233.134 6.60768 233.25 6.74101C233.384 6.85768 233.467 6.94935 233.5 7.01601L239.6 16.641V7.16602C239.6 6.98268 239.659 6.83268 239.775 6.71602C239.892 6.59935 240.042 6.54101 240.225 6.54101H243.225C243.409 6.54101 243.559 6.59935 243.675 6.71602C243.792 6.83268 243.85 6.98268 243.85 7.16602V23.416C243.85 23.5827 243.792 23.7327 243.675 23.866C243.559 23.9827 243.409 24.041 243.225 24.041H240.55C240.284 24.041 240.084 23.9743 239.95 23.841C239.834 23.7077 239.759 23.616 239.725 23.566L233.625 14.316V23.416C233.625 23.5993 233.567 23.7493 233.45 23.866C233.334 23.9827 233.184 24.041 233 24.041H230ZM246.344 24.041C246.211 24.041 246.086 23.991 245.969 23.891C245.869 23.7743 245.819 23.6493 245.819 23.516C245.819 23.4327 245.828 23.3577 245.844 23.291L251.719 7.24101C251.769 7.05768 251.869 6.89935 252.019 6.76601C252.186 6.61601 252.411 6.54101 252.694 6.54101H256.394C256.678 6.54101 256.894 6.61601 257.044 6.76601C257.211 6.89935 257.319 7.05768 257.369 7.24101L263.219 23.291C263.253 23.3577 263.269 23.4327 263.269 23.516C263.269 23.6493 263.211 23.7743 263.094 23.891C262.994 23.991 262.869 24.041 262.719 24.041H259.644C259.394 24.041 259.203 23.9827 259.069 23.866C258.953 23.7327 258.878 23.616 258.844 23.516L257.869 20.966H251.194L250.244 23.516C250.211 23.616 250.136 23.7327 250.019 23.866C249.903 23.9827 249.703 24.041 249.419 24.041H246.344ZM252.219 17.366H256.869L254.519 10.766L252.219 17.366Z" fill="#821224"/>
</g>
<g filter="url(#filter1_d_102_5)">
<path d="M151.646 57.041C151.429 57.041 151.254 56.9827 151.121 56.866C151.004 56.7493 150.921 56.5827 150.871 56.366L147.646 40.316C147.629 40.2493 147.621 40.191 147.621 40.141C147.621 40.091 147.621 40.0577 147.621 40.041C147.621 39.9077 147.671 39.791 147.771 39.691C147.871 39.591 147.987 39.541 148.121 39.541H149.421C149.771 39.541 149.971 39.6827 150.021 39.966L152.571 52.866L155.271 44.016C155.321 43.866 155.404 43.7327 155.521 43.616C155.654 43.4827 155.837 43.416 156.071 43.416H156.996C157.246 43.416 157.429 43.4827 157.546 43.616C157.662 43.7327 157.737 43.866 157.771 44.016L160.496 52.866L163.021 39.966C163.071 39.6827 163.279 39.541 163.646 39.541H164.946C165.079 39.541 165.196 39.591 165.296 39.691C165.396 39.791 165.446 39.9077 165.446 40.041C165.446 40.0577 165.437 40.091 165.421 40.141C165.421 40.191 165.421 40.2493 165.421 40.316L162.196 56.366C162.146 56.5827 162.054 56.7493 161.921 56.866C161.804 56.9827 161.637 57.041 161.421 57.041H160.446C160.212 57.041 160.029 56.9827 159.896 56.866C159.762 56.7493 159.671 56.5993 159.621 56.416L156.521 46.891L153.446 56.416C153.379 56.5993 153.279 56.7493 153.146 56.866C153.029 56.9827 152.854 57.041 152.621 57.041H151.646ZM175.027 57.041C174.844 57.041 174.702 56.991 174.602 56.891C174.502 56.7743 174.452 56.6327 174.452 56.466V40.141C174.452 39.9577 174.502 39.816 174.602 39.716C174.702 39.5993 174.844 39.541 175.027 39.541H181.877C183.127 39.541 184.144 39.7493 184.927 40.166C185.727 40.566 186.311 41.116 186.677 41.816C187.061 42.516 187.252 43.2993 187.252 44.166C187.252 44.8493 187.136 45.441 186.902 45.941C186.686 46.4243 186.411 46.8243 186.077 47.141C185.744 47.441 185.419 47.6743 185.102 47.841C185.752 48.1577 186.327 48.6743 186.827 49.391C187.344 50.1077 187.602 50.9743 187.602 51.991C187.602 52.9077 187.394 53.7493 186.977 54.516C186.561 55.2827 185.936 55.8993 185.102 56.366C184.286 56.816 183.269 57.041 182.052 57.041H175.027ZM176.902 55.016H181.727C182.811 55.016 183.644 54.7243 184.227 54.141C184.811 53.5577 185.102 52.841 185.102 51.991C185.102 51.1077 184.811 50.3827 184.227 49.816C183.644 49.2327 182.811 48.941 181.727 48.941H176.902V55.016ZM176.902 46.941H181.502C182.569 46.941 183.377 46.6993 183.927 46.216C184.477 45.716 184.752 45.041 184.752 44.191C184.752 43.341 184.477 42.691 183.927 42.241C183.377 41.791 182.569 41.566 181.502 41.566H176.902V46.941ZM197.752 57.291C196.352 57.291 195.143 57.041 194.127 56.541C193.127 56.041 192.352 55.2827 191.802 54.266C191.268 53.2327 191.002 51.9077 191.002 50.291V40.141C191.002 39.9577 191.052 39.816 191.152 39.716C191.252 39.5993 191.393 39.541 191.577 39.541H192.852C193.035 39.541 193.177 39.5993 193.277 39.716C193.393 39.816 193.452 39.9577 193.452 40.141V50.341C193.452 51.9743 193.835 53.1827 194.602 53.966C195.368 54.7493 196.418 55.141 197.752 55.141C199.068 55.141 200.11 54.7493 200.877 53.966C201.66 53.1827 202.052 51.9743 202.052 50.341V40.141C202.052 39.9577 202.102 39.816 202.202 39.716C202.318 39.5993 202.46 39.541 202.627 39.541H203.927C204.093 39.541 204.227 39.5993 204.327 39.716C204.443 39.816 204.502 39.9577 204.502 40.141V50.291C204.502 51.9077 204.227 53.2327 203.677 54.266C203.143 55.2827 202.377 56.041 201.377 56.541C200.377 57.041 199.168 57.291 197.752 57.291ZM209.256 57.041C209.073 57.041 208.931 56.991 208.831 56.891C208.731 56.7743 208.681 56.6327 208.681 56.466V40.141C208.681 39.9577 208.731 39.816 208.831 39.716C208.931 39.5993 209.073 39.541 209.256 39.541H214.931C216.648 39.541 218.031 39.7993 219.081 40.316C220.131 40.8327 220.898 41.5993 221.381 42.616C221.864 43.616 222.114 44.8493 222.131 46.316C222.148 47.066 222.156 47.7243 222.156 48.291C222.156 48.8577 222.148 49.5077 222.131 50.241C222.098 51.7743 221.839 53.0493 221.356 54.066C220.889 55.066 220.139 55.816 219.106 56.316C218.089 56.7993 216.739 57.041 215.056 57.041H209.256ZM211.131 54.916H214.931C216.081 54.916 216.998 54.7577 217.681 54.441C218.364 54.1243 218.856 53.616 219.156 52.916C219.473 52.216 219.639 51.291 219.656 50.141C219.689 49.641 219.706 49.2077 219.706 48.841C219.706 48.4577 219.706 48.0827 219.706 47.716C219.706 47.3327 219.689 46.8993 219.656 46.416C219.623 44.7993 219.239 43.6077 218.506 42.841C217.773 42.0577 216.539 41.666 214.806 41.666H211.131V54.916ZM232.192 57.291C230.776 57.291 229.559 57.0493 228.542 56.566C227.526 56.066 226.742 55.3077 226.192 54.291C225.642 53.2577 225.334 51.966 225.267 50.416C225.251 49.6827 225.242 48.9827 225.242 48.316C225.242 47.6327 225.251 46.9243 225.267 46.191C225.334 44.6577 225.651 43.3827 226.217 42.366C226.801 41.3327 227.601 40.566 228.617 40.066C229.651 39.5493 230.842 39.291 232.192 39.291C233.559 39.291 234.751 39.5493 235.767 40.066C236.801 40.566 237.609 41.3327 238.192 42.366C238.776 43.3827 239.092 44.6577 239.142 46.191C239.176 46.9243 239.192 47.6327 239.192 48.316C239.192 48.9827 239.176 49.6827 239.142 50.416C239.092 51.966 238.784 53.2577 238.217 54.291C237.667 55.3077 236.884 56.066 235.867 56.566C234.851 57.0493 233.626 57.291 232.192 57.291ZM232.192 55.166C233.476 55.166 234.517 54.7827 235.317 54.016C236.134 53.2493 236.576 52.0077 236.642 50.291C236.676 49.541 236.692 48.8743 236.692 48.291C236.692 47.691 236.676 47.0243 236.642 46.291C236.609 45.141 236.392 44.2077 235.992 43.491C235.609 42.7743 235.092 42.2493 234.442 41.916C233.792 41.5827 233.042 41.416 232.192 41.416C231.376 41.416 230.642 41.5827 229.992 41.916C229.342 42.2493 228.817 42.7743 228.417 43.491C228.034 44.2077 227.817 45.141 227.767 46.291C227.751 47.0243 227.742 47.691 227.742 48.291C227.742 48.8743 227.751 49.541 227.767 50.291C227.834 52.0077 228.276 53.2493 229.092 54.016C229.909 54.7827 230.942 55.166 232.192 55.166ZM245.566 57.041C245.35 57.041 245.175 56.9827 245.041 56.866C244.925 56.7493 244.841 56.5827 244.791 56.366L241.566 40.316C241.55 40.2493 241.541 40.191 241.541 40.141C241.541 40.091 241.541 40.0577 241.541 40.041C241.541 39.9077 241.591 39.791 241.691 39.691C241.791 39.591 241.908 39.541 242.041 39.541H243.341C243.691 39.541 243.891 39.6827 243.941 39.966L246.491 52.866L249.191 44.016C249.241 43.866 249.325 43.7327 249.441 43.616C249.575 43.4827 249.758 43.416 249.991 43.416H250.916C251.166 43.416 251.35 43.4827 251.466 43.616C251.583 43.7327 251.658 43.866 251.691 44.016L254.416 52.866L256.941 39.966C256.991 39.6827 257.2 39.541 257.566 39.541H258.866C259 39.541 259.116 39.591 259.216 39.691C259.316 39.791 259.366 39.9077 259.366 40.041C259.366 40.0577 259.358 40.091 259.341 40.141C259.341 40.191 259.341 40.2493 259.341 40.316L256.116 56.366C256.066 56.5827 255.975 56.7493 255.841 56.866C255.725 56.9827 255.558 57.041 255.341 57.041H254.366C254.133 57.041 253.95 56.9827 253.816 56.866C253.683 56.7493 253.591 56.5993 253.541 56.416L250.441 46.891L247.366 56.416C247.3 56.5993 247.2 56.7493 247.066 56.866C246.95 56.9827 246.775 57.041 246.541 57.041H245.566ZM263.211 57.041C263.028 57.041 262.886 56.991 262.786 56.891C262.686 56.7743 262.636 56.6327 262.636 56.466V40.116C262.636 39.9493 262.686 39.816 262.786 39.716C262.886 39.5993 263.028 39.541 263.211 39.541H264.536C264.703 39.541 264.836 39.5993 264.936 39.716C265.053 39.816 265.111 39.9493 265.111 40.116V56.466C265.111 56.6327 265.053 56.7743 264.936 56.891C264.836 56.991 264.703 57.041 264.536 57.041H263.211ZM270.047 57.041C269.864 57.041 269.722 56.991 269.622 56.891C269.522 56.7743 269.472 56.6327 269.472 56.466V40.141C269.472 39.9577 269.522 39.816 269.622 39.716C269.722 39.5993 269.864 39.541 270.047 39.541H280.372C280.555 39.541 280.697 39.5993 280.797 39.716C280.897 39.816 280.947 39.9577 280.947 40.141V41.091C280.947 41.2743 280.897 41.416 280.797 41.516C280.697 41.616 280.555 41.666 280.372 41.666H271.872V47.141H279.822C280.005 47.141 280.147 47.1993 280.247 47.316C280.347 47.416 280.397 47.5577 280.397 47.741V48.666C280.397 48.8327 280.347 48.9743 280.247 49.091C280.147 49.191 280.005 49.241 279.822 49.241H271.872V54.916H280.572C280.755 54.916 280.897 54.966 280.997 55.066C281.097 55.166 281.147 55.3077 281.147 55.491V56.466C281.147 56.6327 281.097 56.7743 280.997 56.891C280.897 56.991 280.755 57.041 280.572 57.041H270.047Z" fill="#821224"/>
</g>
<path d="M306.243 153.159H104.109V312.018H306.243V153.159Z" stroke="#537CBC" stroke-width="1.1083" stroke-miterlimit="10"/>
<path d="M306.799 312.573H103.556V170.6H306.799V312.573ZM104.664 311.464H305.69V171.708H104.664V311.464Z" fill="#D36775"/>
<path d="M114.3 161.812C114.3 163.441 112.98 164.761 111.351 164.761C109.722 164.761 108.402 163.441 108.402 161.812C108.402 160.183 109.722 158.863 111.351 158.863C112.98 158.863 114.3 160.183 114.3 161.812Z" stroke="#5077B5" stroke-width="1.1083" stroke-miterlimit="10"/>
<path d="M126.84 161.812C126.84 163.441 125.52 164.761 123.891 164.761C122.262 164.761 120.942 163.441 120.942 161.812C120.942 160.183 122.262 158.863 123.891 158.863C125.52 158.862 126.84 160.183 126.84 161.812Z" stroke="#5077B5" stroke-width="1.1083" stroke-miterlimit="10"/>
<path d="M139.381 161.812C139.381 163.441 138.061 164.761 136.432 164.761C134.803 164.761 133.483 163.441 133.483 161.812C133.483 160.183 134.803 158.863 136.432 158.863C138.06 158.862 139.381 160.183 139.381 161.812Z" stroke="#5077B5" stroke-width="1.1083" stroke-miterlimit="10"/>
<path d="M236.703 167.116H153.51C150.729 167.116 148.474 164.861 148.474 162.08C148.474 159.299 150.729 157.044 153.51 157.044H236.704C239.485 157.044 241.739 159.299 241.739 162.08C241.739 164.862 239.484 167.116 236.703 167.116Z" stroke="#5077B5" stroke-width="1.1083" stroke-miterlimit="10"/>
<path d="M293.93 167.116H254.542C251.761 167.116 249.506 164.861 249.506 162.08C249.506 159.299 251.76 157.044 254.542 157.044H293.93C296.711 157.044 298.966 159.299 298.966 162.08C298.966 164.862 296.711 167.116 293.93 167.116Z" stroke="#5077B5" stroke-width="1.1083" stroke-miterlimit="10"/>
<path d="M192.151 233.916H120.246V274.502H192.151V233.916Z" stroke="#5077B5" stroke-width="1.1083" stroke-miterlimit="10" stroke-dasharray="5.54 5.54"/>
<path d="M192.151 184.104H120.246V224.69H192.151V184.104Z" stroke="#5077B5" stroke-width="1.1083" stroke-miterlimit="10" stroke-dasharray="5.54 5.54"/>
<path d="M191.526 284.755H120.871V287.935H191.526V284.755Z" stroke="#5077B5" stroke-width="1.1083" stroke-miterlimit="10"/>
<path d="M191.526 295.353H120.871V298.533H191.526V295.353Z" stroke="#5077B5" stroke-width="1.1083" stroke-miterlimit="10"/>
<path d="M287.665 284.755H217.01V287.935H287.665V284.755Z" stroke="#5077B5" stroke-width="1.1083" stroke-miterlimit="10"/>
<path d="M287.665 295.353H217.01V298.533H287.665V295.353Z" stroke="#5077B5" stroke-width="1.1083" stroke-miterlimit="10"/>
<path d="M55.4766 143.13C55.4766 169.527 76.8366 190.887 103.235 190.887" stroke="#5077B5" stroke-width="1.1083" stroke-miterlimit="10" stroke-dasharray="5.54 5.54"/>
<path d="M310.874 348.192C331.817 345.614 346.703 326.546 344.125 305.604C341.546 284.662 322.479 269.775 301.537 272.353C280.594 274.932 265.707 293.999 268.286 314.941C270.864 335.884 289.932 350.771 310.874 348.192Z" stroke="#5077B5" stroke-width="1.1083" stroke-miterlimit="10" stroke-dasharray="5.54 5.54"/>
<path d="M31.7121 218.843C39.6937 214.128 42.3419 203.836 37.6271 195.854C32.9124 187.873 22.62 185.224 14.6384 189.939C6.65685 194.654 4.0086 204.946 8.72338 212.928C13.4381 220.91 23.7306 223.558 31.7121 218.843Z" stroke="#5077B5" stroke-width="1.1083" stroke-miterlimit="10" stroke-dasharray="5.54 5.54"/>
<path d="M395.372 343.51C396.677 334.333 390.296 325.835 381.118 324.53C371.941 323.225 363.443 329.606 362.138 338.784C360.833 347.961 367.214 356.459 376.392 357.764C385.569 359.069 394.067 352.688 395.372 343.51Z" stroke="#5077B5" stroke-width="1.1083" stroke-miterlimit="10" stroke-dasharray="5.54 5.54"/>
<path d="M39.4923 275.95C41.6226 266.928 36.0361 257.887 27.0144 255.757C17.9927 253.627 8.95231 259.213 6.82204 268.235C4.69177 277.257 10.2783 286.297 19.3 288.428C28.3217 290.558 37.3621 284.971 39.4923 275.95Z" stroke="#5077B5" stroke-width="1.1083" stroke-miterlimit="10" stroke-dasharray="5.54 5.54"/>
<path d="M287.209 133.225C288.947 125.386 284.001 117.624 276.163 115.886C268.324 114.149 260.562 119.095 258.825 126.933C257.087 134.771 262.033 142.534 269.871 144.271C277.709 146.009 285.472 141.063 287.209 133.225Z" stroke="#5077B5" stroke-width="1.1083" stroke-miterlimit="10" stroke-dasharray="5.54 5.54"/>
<path d="M291.401 233.142H285.859V232.034H291.401V233.142ZM280.318 233.142H274.776V232.034H280.318V233.142ZM269.234 233.142H263.692V232.034H269.234V233.142ZM258.151 233.142H252.609V232.034H258.151V233.142ZM247.068 233.142H241.526V232.034H247.068V233.142ZM235.985 233.142H230.443V232.034H235.985V233.142ZM224.902 233.142H218.922V232.472H219.476V232.034H224.902V233.142ZM291.955 230.058H290.847V224.516H291.955V230.058ZM220.03 226.931H218.922V221.389H220.03V226.931ZM291.955 218.975H290.847V213.433H291.955V218.975ZM220.03 215.848H218.922V210.306H220.03V215.848ZM291.955 207.891H290.847V202.349H291.955V207.891ZM220.03 204.765H218.922V199.223H220.03V204.765ZM291.955 196.808H290.847V191.266H291.955V196.808ZM220.03 193.681H218.922V188.139H220.03V193.681ZM291.955 185.725H290.847V184.658H287.481V183.55H291.955V185.725ZM281.939 184.658H276.397V183.55H281.939V184.658ZM270.856 184.658H265.314V183.55H270.856V184.658ZM259.773 184.658H254.231V183.55H259.773V184.658ZM248.689 184.658H243.147V183.55H248.689V184.658ZM237.606 184.658H232.064V183.55H237.606V184.658ZM226.523 184.658H220.981V183.55H226.523V184.658Z" fill="#D36775"/>
<path d="M285.86 120.923C321.496 120.923 350.333 149.759 350.333 185.396V220.422C350.333 241.948 341.286 262.484 325.402 277.012L325.239 277.161" stroke="#5077B5" stroke-width="1.1083" stroke-miterlimit="10" stroke-dasharray="5.54 5.54"/>
<path d="M96.0701 120.923H39.9551V143.13H96.0701V120.923Z" stroke="#5077B5" stroke-width="1.1083" stroke-miterlimit="10" stroke-dasharray="5.54 5.54"/>
<path d="M96.0701 337.383H39.9551V359.59H96.0701V337.383Z" stroke="#5077B5" stroke-width="1.1083" stroke-miterlimit="10" stroke-dasharray="5.54 5.54"/>
<path d="M423.615 243.105H367.5V265.312H423.615V243.105Z" stroke="#5077B5" stroke-width="1.1083" stroke-miterlimit="10" stroke-dasharray="5.54 5.54"/>
<path d="M104.11 312.018L96.0703 337.383" stroke="#5077B5" stroke-width="1.1083" stroke-miterlimit="10" stroke-dasharray="5.54 5.54"/>
<path d="M264.832 337.383H139.382V359.59H264.832V337.383Z" stroke="#5077B5" stroke-width="1.1083" stroke-miterlimit="10" stroke-dasharray="5.54 5.54"/>
<path opacity="0.3" d="M215.122 372.168L214.371 371.997L211.242 371.287L109.815 348.271L106.129 347.435C103.232 346.778 100.35 348.593 99.692 351.491L99.375 352.888C98.717 355.785 100.533 358.667 103.431 359.325L107.116 360.161L208.543 383.177L211.672 383.887L212.423 384.058L229.234 381.622L215.122 372.168Z" fill="#516092"/>
<path d="M100.657 348.727L96.9707 347.891C94.0737 347.234 91.1918 349.049 90.5338 351.947L90.2168 353.343C89.5588 356.241 91.3748 359.122 94.2728 359.78L97.9588 360.616L100.657 348.727Z" fill="#EF9875"/>
<path d="M100.657 348.727L97.959 360.616L202.516 384.342L203.33 384.237L205.903 372.899L205.214 372.453L100.657 348.727Z" fill="#EAD971"/>
<path d="M205.031 376.724L99.7236 352.827L99.3056 354.669L204.613 378.566L205.031 376.724Z" fill="#0058A0"/>
<path d="M203.581 383.106L98.2744 359.209L97.9557 360.613L203.263 384.51L203.581 383.106Z" fill="#0058A0"/>
<path d="M205.961 372.621L100.654 348.724L100.444 349.651L205.751 373.548L205.961 372.621Z" fill="#0058A0"/>
<path d="M205.965 372.623L202.084 371.742C201.259 371.555 200.438 372.072 200.251 372.897C200.064 373.722 200.581 374.543 201.406 374.73C200.581 374.543 199.76 375.06 199.573 375.885C199.386 376.71 199.903 377.531 200.728 377.718C199.903 377.531 199.082 378.048 198.895 378.873C198.731 379.594 199.106 380.311 199.753 380.606C199.042 380.592 198.395 381.078 198.232 381.799C198.045 382.624 198.562 383.445 199.387 383.632L203.268 384.513L220.079 382.077L205.965 372.623Z" fill="#FFF9E9"/>
<path d="M214.191 378.134C213.348 378.664 212.707 379.516 212.469 380.564C212.264 381.468 212.408 382.361 212.788 383.133L220.077 382.077L214.191 378.134Z" fill="#516092"/>
<path opacity="0.3" d="M142.238 139.638L142.978 139.421L146.058 138.519L245.87 109.283L249.497 108.22C252.348 107.385 253.983 104.396 253.148 101.545L252.745 100.171C251.91 97.3199 248.921 95.6849 246.07 96.5199L242.443 97.5819L142.63 126.82L139.55 127.722L138.811 127.939L125.308 138.246L142.238 139.638Z" fill="#516092"/>
<path d="M253.648 104.431L257.275 103.369C260.126 102.534 261.761 99.5449 260.926 96.6939L260.523 95.3199C259.688 92.4689 256.699 90.8339 253.848 91.6689L250.221 92.7309L253.648 104.431Z" fill="#EF9875"/>
<path d="M253.648 104.431L250.22 92.731L147.329 122.869L146.669 123.357L149.937 134.515L150.756 134.569L253.648 104.431Z" fill="#EAD971"/>
<path d="M148.828 130.744L252.461 100.389L251.93 98.5763L148.297 128.931L148.828 130.744Z" fill="#0058A0"/>
<path d="M146.989 124.462L250.622 94.1079L250.217 92.7259L146.584 123.081L146.989 124.462Z" fill="#0058A0"/>
<path d="M150.011 134.78L253.645 104.425L253.377 103.514L149.744 133.868L150.011 134.78Z" fill="#0058A0"/>
<path d="M150.017 134.786L153.836 133.667C154.648 133.429 155.114 132.578 154.876 131.766C154.638 130.954 153.787 130.489 152.975 130.727C153.787 130.489 154.252 129.638 154.015 128.826C153.777 128.014 152.926 127.549 152.114 127.786C152.926 127.548 153.391 126.697 153.153 125.885C152.945 125.176 152.27 124.731 151.561 124.788C152.189 124.454 152.518 123.715 152.31 123.006C152.072 122.194 151.221 121.729 150.409 121.966L146.59 123.085L133.087 133.392L150.017 134.786Z" fill="#FFF9E9"/>
<path d="M140.148 133.974C140.627 133.1 140.772 132.044 140.47 131.013C140.21 130.123 139.649 129.413 138.942 128.924L133.087 133.393L140.148 133.974Z" fill="#516092"/>
<path d="M39.9551 204.396L156.198 254.209L39.9551 272.075" stroke="#5077B5" stroke-width="1.1083" stroke-miterlimit="10" stroke-dasharray="5.54 5.54"/>
<path d="M367.5 254.209H258.484" stroke="#5077B5" stroke-width="1.1083" stroke-miterlimit="10" stroke-dasharray="5.54 5.54"/>
<defs>
<filter id="filter0_d_102_5" x="157.212" y="2.29102" width="110.058" height="26" filterUnits="userSpaceOnUse" color-interpolation-filters="sRGB">
<feFlood flood-opacity="0" result="BackgroundImageFix"/>
<feColorMatrix in="SourceAlpha" type="matrix" values="0 0 0 0 0 0 0 0 0 0 0 0 0 0 0 0 0 0 127 0" result="hardAlpha"/>
<feOffset/>
<feGaussianBlur stdDeviation="2"/>
<feComposite in2="hardAlpha" operator="out"/>
<feColorMatrix type="matrix" values="0 0 0 0 0 0 0 0 0 0 0 0 0 0 0 0 0 0 0.25 0"/>
<feBlend mode="normal" in2="BackgroundImageFix" result="effect1_dropShadow_102_5"/>
<feBlend mode="normal" in="SourceGraphic" in2="effect1_dropShadow_102_5" result="shape"/>
</filter>
<filter id="filter1_d_102_5" x="143.62" y="35.291" width="141.526" height="26" filterUnits="userSpaceOnUse" color-interpolation-filters="sRGB">
<feFlood flood-opacity="0" result="BackgroundImageFix"/>
<feColorMatrix in="SourceAlpha" type="matrix" values="0 0 0 0 0 0 0 0 0 0 0 0 0 0 0 0 0 0 127 0" result="hardAlpha"/>
<feOffset/>
<feGaussianBlur stdDeviation="2"/>
<feComposite in2="hardAlpha" operator="out"/>
<feColorMatrix type="matrix" values="0 0 0 0 0 0 0 0 0 0 0 0 0 0 0 0 0 0 0.25 0"/>
<feBlend mode="normal" in2="BackgroundImageFix" result="effect1_dropShadow_102_5"/>
<feBlend mode="normal" in="SourceGraphic" in2="effect1_dropShadow_102_5" result="shape"/>
</filter>
</defs>
</svg>
