<svg class="svg-icon" style="width: 1em;height: 1em;vertical-align: middle;fill: currentColor;overflow: hidden;" viewBox="0 0 1024 1024" version="1.1" xmlns="http://www.w3.org/2000/svg"><path d="M205.084444 531.626667v-76.515556l-72.675555 80.839111z m612.864 0l0.995556-76.487111 69.831111 78.051555z" fill="#117CCC" /><path d="M817.948444 837.546667a42.24 42.24 0 0 1-10.780444 27.477333 38.513778 38.513778 0 0 1-27.448889 10.780444H243.342222a42.24 42.24 0 0 1-27.477333-10.780444 38.599111 38.599111 0 0 1-10.780445-27.477333V148.224a36.977778 36.977778 0 0 1 38.257778-38.257778h328.476445a42.24 42.24 0 0 1 27.477333 10.780445l206.876444 206.904889a38.485333 38.485333 0 0 1 10.808889 27.477333v482.417778z" fill="#EBECF0" /><path d="M817.948444 837.546667v38.257777a42.154667 42.154667 0 0 1-10.780444 27.448889 38.4 38.4 0 0 1-27.448889 10.780445H243.342222a37.688889 37.688889 0 0 1-38.257778-38.229334v-38.257777a42.24 42.24 0 0 0 10.780445 27.477333 38.627556 38.627556 0 0 0 27.477333 10.780444h536.376889a36.977778 36.977778 0 0 0 38.229333-38.257777z" fill="#C1C7D0" /><path d="M143.217778 530.631111h737.592889a13.624889 13.624889 0 0 1 13.624889 13.624889v177.607111a42.211556 42.211556 0 0 1-10.780445 27.448889 38.513778 38.513778 0 0 1-27.448889 10.780444h-688.355555a42.211556 42.211556 0 0 1-27.448889-10.780444 38.513778 38.513778 0 0 1-10.780445-27.448889v-177.607111a13.624889 13.624889 0 0 1 13.596445-13.624889z" fill="#1890FF" /><path d="M264.021333 308.167111m18.346667 0l98.446222 0q18.346667 0 18.346667 18.346667l0 0q0 18.346667-18.346667 18.346666l-98.446222 0q-18.346667 0-18.346667-18.346666l0 0q0-18.346667 18.346667-18.346667Z" fill="#C1C7D0" /><path d="M264.021333 205.482667m18.346667 0l251.164444 0q18.346667 0 18.346667 18.346666l0 0q0 18.346667-18.346667 18.346667l-251.164444 0q-18.346667 0-18.346667-18.346667l0 0q0-18.346667 18.346667-18.346666Z" fill="#C1C7D0" /><path d="M264.021333 410.88m18.346667 0l251.164444 0q18.346667 0 18.346667 18.346667l0 0q0 18.346667-18.346667 18.346666l-251.164444 0q-18.346667 0-18.346667-18.346666l0 0q0-18.346667 18.346667-18.346667Z" fill="#C1C7D0" /><path d="M808.135111 327.651556l-207.872-206.904889a42.154667 42.154667 0 0 0-27.448889-10.780445v211.797334a37.688889 37.688889 0 0 0 38.229334 38.257777h206.904888v-4.892444a46.904889 46.904889 0 0 0-9.813333-27.477333z" fill="#C1C7D0" /><path d="M305.436444 588.8a37.973333 37.973333 0 0 1 19.313778 5.148444 38.855111 38.855111 0 0 1 14.023111 14.051556 37.802667 37.802667 0 0 1 5.148445 19.342222v33.877334a37.802667 37.802667 0 0 1-5.148445 19.342222 38.542222 38.542222 0 0 1-14.023111 14.023111 37.717333 37.717333 0 0 1-19.313778 5.176889H237.624889v-110.933334z m1.991112 90.709333a20.423111 20.423111 0 0 0 7.736888-7.736889 20.878222 20.878222 0 0 0 2.844445-10.552888v-33.877334a21.276444 21.276444 0 0 0-2.844445-10.723555 21.077333 21.077333 0 0 0-18.261333-10.552889H263.367111v76.259555h33.536a20.764444 20.764444 0 0 0 10.524445-2.872889z" fill="#FFFFFF" /><path d="M392.732444 601.315556a25.344 25.344 0 0 1 9.159112-9.187556 24.604444 24.604444 0 0 1 12.572444-3.384889h55.893333a25.173333 25.173333 0 0 1 25.287111 25.173333v60.472889a25.116444 25.116444 0 0 1-3.384888 12.657778 25.031111 25.031111 0 0 1-21.902223 12.657778h-55.779555a24.120889 24.120889 0 0 1-12.572445-3.470222 25.799111 25.799111 0 0 1-9.159111-9.272889 24.376889 24.376889 0 0 1-3.384889-12.572445v-60.472889a24.405333 24.405333 0 0 1 3.271111-12.600888z m73.187556 77.169777a12.373333 12.373333 0 0 0 3.783111-9.102222v-50.318222a12.629333 12.629333 0 0 0-3.783111-9.272889 12.373333 12.373333 0 0 0-9.102222-3.783111h-28.672a12.970667 12.970667 0 0 0-13.056 13.056v50.318222a12.401778 12.401778 0 0 0 3.811555 9.102222 12.544 12.544 0 0 0 9.244445 3.783111h28.672a12.373333 12.373333 0 0 0 8.96-3.783111z" fill="#FFFFFF" /><path d="M647.367111 699.733333h-73.500444a31.829333 31.829333 0 0 1-16.526223-4.437333 33.479111 33.479111 0 0 1-11.918222-12.003556 32.341333 32.341333 0 0 1-4.408889-16.469333V621.511111a31.687111 31.687111 0 0 1 4.408889-16.355555 33.536 33.536 0 0 1 11.918222-11.946667 31.829333 31.829333 0 0 1 16.526223-4.437333h73.443555v17.265777h-64.739555a15.104 15.104 0 0 0-10.979556 4.437334 14.904889 14.904889 0 0 0-4.494222 11.036444v45.312a15.36 15.36 0 0 0 15.473778 15.473778h64.739555z" fill="#FFFFFF" /><path d="M794.254222 588.572444l-38.826666 55.495112 38.826666 55.637333h-28.672l-24.490666-35.015111-24.462223 35.015111h-28.984889l38.798223-55.637333-38.798223-55.495112h28.842667l24.462222 35.015112 24.490667-35.015112z" fill="#FFFFFF" /></svg>