<svg class="svg-icon" style="width: 1em;height: 1em;vertical-align: middle;fill: currentColor;overflow: hidden;" viewBox="0 0 1024 1024" version="1.1" xmlns="http://www.w3.org/2000/svg"><path d="M205.084444 531.598222v-76.487111l-72.675555 80.839111z m612.864 0l0.967112-76.487111 69.831111 78.08z" fill="#FF8B00" /><path d="M817.92 837.546667a42.097778 42.097778 0 0 1-10.780444 27.448889 38.485333 38.485333 0 0 1-27.477334 10.808888H243.342222a42.097778 42.097778 0 0 1-27.477333-10.808888 38.513778 38.513778 0 0 1-10.780445-27.448889V148.195556a36.977778 36.977778 0 0 1 38.257778-38.229334h328.476445a42.097778 42.097778 0 0 1 27.448889 10.780445l206.904888 206.904889a38.4 38.4 0 0 1 10.780445 27.448888v482.446223z" fill="#EBECF0" /><path d="M817.92 837.546667v38.257777a42.211556 42.211556 0 0 1-10.780444 27.448889 38.599111 38.599111 0 0 1-27.477334 10.780445H243.342222a37.688889 37.688889 0 0 1-38.257778-38.229334v-38.257777a42.097778 42.097778 0 0 0 10.780445 27.448889 38.485333 38.485333 0 0 0 27.477333 10.808888h536.348445a36.977778 36.977778 0 0 0 38.229333-38.257777z" fill="#C1C7D0" /><path d="M808.135111 327.651556l-207.872-206.904889a42.211556 42.211556 0 0 0-27.448889-10.780445v211.797334a37.688889 37.688889 0 0 0 38.229334 38.257777H817.92v-4.920889a46.819556 46.819556 0 0 0-9.784889-27.448888z" fill="#C1C7D0" /><path d="M438.471111 612.408889a20097.422222 20097.422222 0 0 1 157.610667-166.798222 24.746667 24.746667 0 0 1 37.404444 1.820444l131.612445 166.314667a24.860444 24.860444 0 0 1-19.512889 40.305778h-288.739556a24.803556 24.803556 0 0 1-18.375111-41.642667z" fill="#C1C7D0" opacity=".5" /><path d="M259.185778 544.512a20588.515556 20588.515556 0 0 1 157.582222-166.798222 24.803556 24.803556 0 0 1 37.404444 1.820444l131.612445 166.343111a24.832 24.832 0 0 1-19.484445 40.277334H277.475556a24.803556 24.803556 0 0 1-18.289778-41.642667z" fill="#C1C7D0" opacity=".7" /><path d="M143.189333 530.631111h737.621334a13.596444 13.596444 0 0 1 13.624889 13.624889v177.578667a42.24 42.24 0 0 1-10.780445 27.477333 38.599111 38.599111 0 0 1-27.477333 10.780444h-688.355556a42.154667 42.154667 0 0 1-27.448889-10.780444 38.513778 38.513778 0 0 1-10.780444-27.477333V544.142222a13.596444 13.596444 0 0 1 13.596444-13.511111z" fill="#FFAB00" /><path d="M337.521778 270.392889m-43.776 0a43.776 43.776 0 1 0 87.552 0 43.776 43.776 0 1 0-87.552 0Z" fill="#C1C7D0" opacity=".5" /><path d="M248.661333 698.709333h47.132445a25.6 25.6 0 0 0 12.942222-3.470222 26.680889 26.680889 0 0 0 9.585778-9.500444 25.6 25.6 0 0 0 3.555555-13.169778v-92.472889h32.824889v92.472889a46.165333 46.165333 0 0 1-6.542222 24.092444 49.322667 49.322667 0 0 1-17.521778 17.550223 46.307556 46.307556 0 0 1-24.064 6.513777H248.661333z" fill="#FFFFFF" /><path d="M527.786667 586.410667a45.824 45.824 0 0 1 16.611555 16.526222 45.852444 45.852444 0 0 1 0 45.852444 45.511111 45.511111 0 0 1-16.611555 16.64 44.885333 44.885333 0 0 1-22.954667 6.115556h-59.932444v49.180444h-32.625778v-140.430222h92.558222a44.885333 44.885333 0 0 1 22.954667 6.115556z m-17.066667 56.348444a23.893333 23.893333 0 0 0 0-33.678222 22.755556 22.755556 0 0 0-16.725333-6.940445H444.871111v47.559112h49.123556a22.755556 22.755556 0 0 0 16.725333-6.940445z" fill="#FFFFFF" /><path d="M653.795556 606.122667a29.952 29.952 0 0 0-10.695112 10.723555 28.444444 28.444444 0 0 0-3.953777 14.677334v37.774222a28.956444 28.956444 0 0 0 3.953777 14.791111 29.610667 29.610667 0 0 0 10.695112 10.837333 28.444444 28.444444 0 0 0 14.705777 3.953778h39.822223v-56.888889h32.597333v78.791111h-83.399111a49.749333 49.749333 0 0 1-25.6-6.940444 51.399111 51.399111 0 0 1-25.457778-44.487111v-37.774223a50.005333 50.005333 0 0 1 6.826667-25.6 51.2 51.2 0 0 1 18.631111-18.688 50.005333 50.005333 0 0 1 25.6-6.940444h83.399111v21.845333h-72.362667a28.444444 28.444444 0 0 0-14.762666 3.925334z" fill="#FFFFFF" /></svg>