<svg class="svg-icon" style="width: 1em;height: 1em;vertical-align: middle;fill: currentColor;overflow: hidden;" viewBox="0 0 1024 1024" version="1.1" xmlns="http://www.w3.org/2000/svg"><path d="M205.084444 531.626667v-76.487111l-72.675555 80.839111z m612.864 0l0.995556-76.487111 69.802667 78.051555z" fill="#DE350B" /><path d="M817.948444 837.546667a42.24 42.24 0 0 1-10.780444 27.477333 38.513778 38.513778 0 0 1-27.448889 10.780444h-536.376889a42.24 42.24 0 0 1-27.477333-10.780444 38.599111 38.599111 0 0 1-10.780445-27.477333V148.224a36.977778 36.977778 0 0 1 38.257778-38.257778h328.476445a42.097778 42.097778 0 0 1 27.448889 10.780445l206.904888 206.904889a38.485333 38.485333 0 0 1 10.808889 27.477333v482.417778z" fill="#EBECF0" /><path d="M817.948444 837.546667v38.257777a42.154667 42.154667 0 0 1-10.780444 27.448889 38.4 38.4 0 0 1-27.448889 10.780445h-536.376889a37.688889 37.688889 0 0 1-38.257778-38.229334v-38.257777a42.24 42.24 0 0 0 10.780445 27.477333 38.599111 38.599111 0 0 0 27.477333 10.780444h536.376889a36.977778 36.977778 0 0 0 38.229333-38.257777z" fill="#C1C7D0" /><path d="M143.104 530.631111h737.621333a13.624889 13.624889 0 0 1 13.624889 13.624889v177.692444a42.211556 42.211556 0 0 1-10.780444 27.448889 38.599111 38.599111 0 0 1-27.477334 10.780445h-688.355555a42.154667 42.154667 0 0 1-27.448889-10.780445 38.513778 38.513778 0 0 1-10.780444-27.448889v-177.607111a13.624889 13.624889 0 0 1 13.596444-13.710222z" fill="#FF5630" /><path d="M264.021333 308.167111m18.346667 0l98.446222 0q18.346667 0 18.346667 18.346667l0 0q0 18.346667-18.346667 18.346666l-98.446222 0q-18.346667 0-18.346667-18.346666l0 0q0-18.346667 18.346667-18.346667Z" fill="#C1C7D0" /><path d="M264.021333 205.482667m18.346667 0l251.164444 0q18.346667 0 18.346667 18.346666l0 0q0 18.346667-18.346667 18.346667l-251.164444 0q-18.346667 0-18.346667-18.346667l0 0q0-18.346667 18.346667-18.346666Z" fill="#C1C7D0" /><path d="M264.021333 410.88m18.346667 0l251.164444 0q18.346667 0 18.346667 18.346667l0 0q0 18.346667-18.346667 18.346666l-251.164444 0q-18.346667 0-18.346667-18.346666l0 0q0-18.346667 18.346667-18.346667Z" fill="#C1C7D0" /><path d="M808.135111 327.651556l-207.872-206.904889a42.211556 42.211556 0 0 0-27.448889-10.780445v211.797334a37.688889 37.688889 0 0 0 38.229334 38.257777h206.904888v-5.006222a46.904889 46.904889 0 0 0-9.813333-27.363555z" fill="#C1C7D0" /><path d="M355.669333 586.410667a45.511111 45.511111 0 0 1 16.611556 16.526222 44.259556 44.259556 0 0 1 6.144 22.897778 45.511111 45.511111 0 0 1-45.681778 45.710222H272.782222v49.208889H240.184889v-140.458667h92.558222a44.771556 44.771556 0 0 1 22.926222 6.115556z m-17.066666 56.348444a23.779556 23.779556 0 0 0-16.725334-40.618667H272.725333v47.559112h49.152a22.755556 22.755556 0 0 0 16.782223-6.940445z" fill="#FFFFFF" /><path d="M520.135111 580.295111a47.559111 47.559111 0 0 1 24.462222 6.542222 48.554667 48.554667 0 0 1 24.263111 42.24v42.865778a48.611556 48.611556 0 0 1-48.725333 48.810667h-85.845333v-140.458667z m2.56 114.801778a25.912889 25.912889 0 0 0 9.756445-9.756445 26.510222 26.510222 0 0 0 3.584-13.397333v-42.865778a26.737778 26.737778 0 0 0-3.584-13.568 25.770667 25.770667 0 0 0-9.756445-9.784889 26.396444 26.396444 0 0 0-13.368889-3.584h-42.410666v96.540445h42.410666a26.396444 26.396444 0 0 0 13.368889-3.584z" fill="#FFFFFF" /><path d="M672.170667 605.610667a25.6 25.6 0 0 0-9.557334 9.500444 25.230222 25.230222 0 0 0-3.584 13.169778v22.243555h101.944889v21.845334h-101.944889v48.355555h-32.625777v-92.472889a46.791111 46.791111 0 0 1 6.428444-24.092444 47.758222 47.758222 0 0 1 41.500444-23.893333h86.641778v21.845333h-75.832889a25.6 25.6 0 0 0-12.970666 3.498667z" fill="#FFFFFF" /></svg>