<svg class="svg-icon" style="width: 1em;height: 1em;vertical-align: middle;fill: currentColor;overflow: hidden;" viewBox="0 0 1024 1024" version="1.1" xmlns="http://www.w3.org/2000/svg"><path d="M205.084444 531.626667v-76.515556l-72.675555 80.839111z m612.864 0l0.967112-76.487111 69.831111 78.051555z" fill="#D8462A" /><path d="M817.948444 837.546667a42.24 42.24 0 0 1-10.780444 27.477333 38.599111 38.599111 0 0 1-27.477333 10.780444h-536.376889a42.211556 42.211556 0 0 1-27.448889-10.780444 38.599111 38.599111 0 0 1-10.780445-27.477333V148.224a36.977778 36.977778 0 0 1 38.229334-38.257778h328.504889a42.097778 42.097778 0 0 1 27.448889 10.780445l206.904888 206.904889a38.485333 38.485333 0 0 1 10.780445 27.477333v482.417778z" fill="#EBECF0" /><path d="M817.948444 837.546667v38.257777a42.154667 42.154667 0 0 1-10.780444 27.448889 38.485333 38.485333 0 0 1-27.477333 10.780445h-536.376889a37.660444 37.660444 0 0 1-38.229334-38.229334v-38.257777a42.24 42.24 0 0 0 10.780445 27.477333 38.570667 38.570667 0 0 0 27.448889 10.780444h536.376889a36.977778 36.977778 0 0 0 38.257777-38.257777z" fill="#C1C7D0" /><path d="M143.189333 530.631111h737.621334a13.653333 13.653333 0 0 1 13.624889 13.624889v177.607111a42.211556 42.211556 0 0 1-10.780445 27.448889 38.599111 38.599111 0 0 1-27.477333 10.780444h-688.355556a42.154667 42.154667 0 0 1-27.448889-10.780444 38.4 38.4 0 0 1-10.780444-27.448889v-177.607111a13.624889 13.624889 0 0 1 13.596444-13.624889z" fill="#EF6F59" /><path d="M264.021333 308.167111m18.346667 0l98.446222 0q18.346667 0 18.346667 18.346667l0 0q0 18.346667-18.346667 18.346666l-98.446222 0q-18.346667 0-18.346667-18.346666l0 0q0-18.346667 18.346667-18.346667Z" fill="#C1C7D0" /><path d="M264.021333 205.482667m18.346667 0l251.164444 0q18.346667 0 18.346667 18.346666l0 0q0 18.346667-18.346667 18.346667l-251.164444 0q-18.346667 0-18.346667-18.346667l0 0q0-18.346667 18.346667-18.346666Z" fill="#C1C7D0" /><path d="M264.021333 410.88m18.346667 0l251.164444 0q18.346667 0 18.346667 18.346667l0 0q0 18.346667-18.346667 18.346666l-251.164444 0q-18.346667 0-18.346667-18.346666l0 0q0-18.346667 18.346667-18.346667Z" fill="#C1C7D0" /><path d="M808.135111 327.651556l-207.872-206.904889a42.211556 42.211556 0 0 0-27.448889-10.780445v211.797334a37.688889 37.688889 0 0 0 38.229334 38.257777h206.904888v-4.892444a46.904889 46.904889 0 0 0-9.813333-27.477333z" fill="#C1C7D0" /><path d="M355.697778 586.439111a45.511111 45.511111 0 0 1 16.611555 16.526222 44.430222 44.430222 0 0 1 6.115556 22.755556 45.511111 45.511111 0 0 1-45.681778 45.710222H272.696889v49.208889H240.071111V580.266667h92.558222a44.714667 44.714667 0 0 1 23.068445 6.172444z m-17.066667 56.32a23.751111 23.751111 0 0 0-16.725333-40.590222h-49.208889v47.530667h49.123555a22.755556 22.755556 0 0 0 16.839112-6.855112z" fill="#FFFFFF" /><path d="M549.802667 586.439111a45.511111 45.511111 0 0 1 16.611555 16.526222 44.458667 44.458667 0 0 1 6.144 22.755556 45.511111 45.511111 0 0 1-45.710222 45.710222h-59.932444v49.208889h-32.625778V580.266667h92.558222a44.629333 44.629333 0 0 1 22.954667 6.172444z m-17.066667 56.32a23.751111 23.751111 0 0 0-16.725333-40.590222h-49.123556v47.530667h49.123556a22.755556 22.755556 0 0 0 16.753777-6.855112z" fill="#FFFFFF" /><path d="M757.077333 580.096v22.072889h-50.972444v118.584889H673.28V602.168889h-50.972444v-22.072889z" fill="#FFFFFF" /></svg>