<svg class="svg-icon" style="width: 1em;height: 1em;vertical-align: middle;fill: currentColor;overflow: hidden;" viewBox="0 0 1024 1024" version="1.1" xmlns="http://www.w3.org/2000/svg"><path d="M205.056 531.626667v-76.487111l-72.675556 80.839111z m612.864 0l0.995556-76.487111 69.831111 78.051555z" fill="#17426A" /><path d="M817.92 837.546667a42.24 42.24 0 0 1-10.780444 27.477333 38.513778 38.513778 0 0 1-27.448889 10.780444H243.313778a42.097778 42.097778 0 0 1-27.448889-10.780444 38.485333 38.485333 0 0 1-10.808889-27.477333V148.224a36.977778 36.977778 0 0 1 38.257778-38.257778h328.476444a42.24 42.24 0 0 1 27.477334 10.780445l206.904888 206.904889a38.599111 38.599111 0 0 1 10.780445 27.477333v482.417778z" fill="#EBECF0" /><path d="M204.117333 148.195556a42.24 42.24 0 0 1 10.780445-27.477334 38.513778 38.513778 0 0 1 27.448889-10.780444h536.376889a42.097778 42.097778 0 0 1 27.448888 10.780444 38.485333 38.485333 0 0 1 10.808889 27.477334v689.322666a36.977778 36.977778 0 0 1-38.257777 38.257778H450.247111a42.24 42.24 0 0 1-27.477333-10.780444l-206.904889-206.904889a38.599111 38.599111 0 0 1-10.780445-27.477334V148.195556z" fill="#EBECF0" /><path d="M817.92 837.546667v38.257777a42.154667 42.154667 0 0 1-10.780444 27.448889 38.4 38.4 0 0 1-27.448889 10.780445H243.313778a37.688889 37.688889 0 0 1-38.257778-38.229334v-38.257777a42.126222 42.126222 0 0 0 10.808889 27.477333 38.513778 38.513778 0 0 0 27.448889 10.780444h536.376889a36.977778 36.977778 0 0 0 38.229333-38.257777z" fill="#C1C7D0" /><path d="M143.189333 530.631111h737.592889a13.624889 13.624889 0 0 1 13.624889 13.624889v177.692444a42.211556 42.211556 0 0 1-10.780444 27.448889 38.513778 38.513778 0 0 1-27.448889 10.780445H167.822222a42.211556 42.211556 0 0 1-27.448889-10.780445 38.513778 38.513778 0 0 1-10.780444-27.448889v-177.607111a13.624889 13.624889 0 0 1 13.596444-13.710222z" fill="#015478" /><path d="M283.278222 117.333333h85.333334v56.888889h-85.333334z" fill="#C1C7D0" /><path d="M368.611556 174.222222h85.333333v56.888889h-85.333333z" fill="#C1C7D0" /><path d="M283.278222 231.111111h85.333334v56.888889h-85.333334z" fill="#C1C7D0" /><path d="M368.611556 288h85.333333v56.888889h-85.333333z" fill="#C1C7D0" /><path d="M283.278222 344.888889h85.333334v56.888889h-85.333334z" fill="#C1C7D0" /><path d="M368.611556 401.777778h85.333333v56.888889h-85.333333z" fill="#C1C7D0" /><path d="M397.283556 622.08a43.889778 43.889778 0 0 1-6.172445 22.755556 43.377778 43.377778 0 0 1-16.725333 16.128l22.897778 53.703111h-31.857778l-20.707556-47.985778h-50.375111v47.985778H262.286222v-136.988445h90.396445a43.719111 43.719111 0 0 1 22.385777 5.973334 44.487111 44.487111 0 0 1 16.213334 16.128 43.178667 43.178667 0 0 1 6.001778 22.300444z m-102.940445 23.296h47.786667a22.584889 22.584889 0 0 0 16.412444-6.769778 22.328889 22.328889 0 0 0 6.855111-16.526222 22.101333 22.101333 0 0 0-6.855111-16.327111 22.584889 22.584889 0 0 0-16.412444-6.769778h-47.786667z m264.618667 69.290667l-43.804445-103.936-35.043555 82.631111h39.224889l9.955555 21.304889h-89.998222l58.140444-136.988445h35.242667l58.140445 136.988445z m212.252444-92.586667a43.889778 43.889778 0 0 1-6.172444 22.755556 43.377778 43.377778 0 0 1-16.725334 16.128l22.897778 53.703111h-31.857778l-20.707555-47.985778h-50.375111v47.985778h-32.056889v-136.988445h90.396444a43.719111 43.719111 0 0 1 22.414223 5.973334 44.487111 44.487111 0 0 1 16.241777 16.128 43.178667 43.178667 0 0 1 5.944889 22.300444z m-102.940444 23.296h47.786666a22.584889 22.584889 0 0 0 16.412445-6.769778 22.328889 22.328889 0 0 0 6.883555-16.526222 22.101333 22.101333 0 0 0-6.883555-16.327111 22.584889 22.584889 0 0 0-16.412445-6.769778h-47.786666z" fill="#F5F7FA" /></svg>