<svg class="svg-icon" style="width: 1em;height: 1em;vertical-align: middle;fill: currentColor;overflow: hidden;" viewBox="0 0 1024 1024" version="1.1" xmlns="http://www.w3.org/2000/svg"><path d="M205.056 531.626667v-76.487111l-72.675556 80.839111z m612.864 0l0.995556-76.487111 69.831111 78.051555z" fill="#5C7B93" /><path d="M817.92 837.546667a42.24 42.24 0 0 1-10.780444 27.477333 38.513778 38.513778 0 0 1-27.448889 10.780444h-536.376889a42.097778 42.097778 0 0 1-27.448889-10.780444 38.485333 38.485333 0 0 1-10.808889-27.477333V148.224a36.977778 36.977778 0 0 1 38.257778-38.257778h328.476444a42.24 42.24 0 0 1 27.477334 10.780445l206.904888 206.904889a38.599111 38.599111 0 0 1 10.780445 27.477333v482.417778z" fill="#EBECF0" /><path d="M817.92 837.546667v38.257777a42.154667 42.154667 0 0 1-10.780444 27.448889 38.4 38.4 0 0 1-27.448889 10.780445h-536.376889a37.688889 37.688889 0 0 1-38.257778-38.229334v-38.257777a42.126222 42.126222 0 0 0 10.808889 27.477333 38.513778 38.513778 0 0 0 27.448889 10.780444h536.376889a36.977778 36.977778 0 0 0 38.229333-38.257777z" fill="#C1C7D0" /><path d="M143.189333 530.631111h737.592889a13.624889 13.624889 0 0 1 13.624889 13.624889v177.692444a42.211556 42.211556 0 0 1-10.780444 27.448889 38.513778 38.513778 0 0 1-27.448889 10.780445h-688.355556a42.211556 42.211556 0 0 1-27.448889-10.780445 38.513778 38.513778 0 0 1-10.780444-27.448889v-177.607111a13.624889 13.624889 0 0 1 13.596444-13.710222z" fill="#8EA9C2" /><path d="M263.992889 308.167111m18.346667 0l98.446222 0q18.346667 0 18.346666 18.346667l0 0q0 18.346667-18.346666 18.346666l-98.446222 0q-18.346667 0-18.346667-18.346666l0 0q0-18.346667 18.346667-18.346667Z" fill="#C1C7D0" /><path d="M263.992889 205.482667m18.346667 0l251.164444 0q18.346667 0 18.346667 18.346666l0 0q0 18.346667-18.346667 18.346667l-251.164444 0q-18.346667 0-18.346667-18.346667l0 0q0-18.346667 18.346667-18.346666Z" fill="#C1C7D0" /><path d="M263.992889 410.88m18.346667 0l251.164444 0q18.346667 0 18.346667 18.346667l0 0q0 18.346667-18.346667 18.346666l-251.164444 0q-18.346667 0-18.346667-18.346666l0 0q0-18.346667 18.346667-18.346667Z" fill="#C1C7D0" /><path d="M808.135111 327.651556l-207.900444-206.904889a42.154667 42.154667 0 0 0-27.448889-10.780445v211.797334a37.688889 37.688889 0 0 0 38.229333 38.257777h206.904889v-5.006222a47.047111 47.047111 0 0 0-9.784889-27.363555z" fill="#C1C7D0" /><path d="M380.785778 580.096v22.044444h-50.972445v118.613334h-32.824889v-118.613334H246.016v-22.044444z" fill="#FFFFFF" /><path d="M560.583111 580.096l-49.123555 70.200889 49.123555 70.456889h-36.266667l-31.004444-44.316445-31.004444 44.316445H425.813333l49.123556-70.456889-49.123556-70.200889h36.494223l31.004444 44.288 31.004444-44.288z" fill="#FFFFFF" /><path d="M740.437333 580.096v22.044444h-50.972444v118.613334h-32.824889v-118.613334h-50.972444v-22.044444z" fill="#FFFFFF" /></svg>